<?xml version="1.0" encoding="utf-8"?>
<!-- Svg Vector Icons : http://www.onlinewebfonts.com/icon -->
<!DOCTYPE svg PUBLIC "-//W3C//DTD SVG 1.1//EN" "http://www.w3.org/Graphics/SVG/1.1/DTD/svg11.dtd">
<svg version="1.1" xmlns="http://www.w3.org/2000/svg" xmlns:xlink="http://www.w3.org/1999/xlink" x="0px" y="0px" viewBox="0 0 1000 1000" enable-background="new 0 0 1000 1000" xml:space="preserve">
<metadata> Svg Vector Icons : http://www.onlinewebfonts.com/icon </metadata>
<g><g transform="translate(0.000000,512.000000) scale(0.100000,-0.100000)"><path d="M1210.8,4989.1c-541.3-107.1-975.5-547.1-1080.7-1096c-40.2-212.3-40.2-7333.5,0-7547.7c107.1-552.8,543.2-987,1097.9-1094.1c212.3-40.2,7333.5-40.2,7547.7,0c552.8,107.1,987,543.2,1094.1,1097.9c40.2,210.4,40.2,7333.5,0,7543.9c-107.1,554.7-541.3,990.8-1094.1,1097.9C8569.2,5029.3,1407.8,5027.4,1210.8,4989.1z M8829.3,4335c168.3-78.4,306-216.1,384.5-384.5l61.2-128.2V121.2V-3580l-61.2-128.2c-78.4-168.3-216.1-306-384.5-384.5l-128.2-61.2H5000H1298.8l-128.2,61.2c-168.3,78.4-306,216.1-384.5,384.5L725-3580V121.2v3701.2l61.2,128.2c99.5,212.3,306,384.5,516.4,434.2c42.1,9.6,1646.9,15.3,3735.6,15.3l3662.9-3.8L8829.3,4335z"/><path d="M2651.1,2221.4l-214.2-216.1l281.2-281.2l283.1-283.1l-283.1-283.1l-281.2-281.2l214.2-216.1l216.1-214.2l281.2,281.2l283.1,283.1l283.1-283.1l281.2-281.2l216.1,214.2l214.2,216.1L4145,1157.9L3861.9,1441l283.1,283.1l281.2,281.2l-214.2,216.1l-216.1,214.2l-281.2-281.2l-283.1-283.1l-283.1,283.1l-281.2,281.2L2651.1,2221.4z"/><path d="M5788.1,2221.4l-214.2-216.1l281.2-281.2l283.1-283.1L5855,1157.9l-281.2-281.2l214.2-216.1l216.1-214.2l281.2,281.2l283.1,283.1l283.1-283.1l281.2-281.2l216.1,214.2l214.2,216.1l-281.2,281.2L6998.8,1441l283.1,283.1l281.2,281.2l-214.2,216.1l-216.1,214.2l-281.2-281.2l-283.1-283.1l-283.1,283.1l-281.2,281.2L5788.1,2221.4z"/><path d="M3205.8-1632.8l5.7-302.2l1832.4-5.7l1830.5-3.8v306v306H5038.3H3200.1L3205.8-1632.8z"/></g></g>
</svg>