<?xml version="1.0" encoding="utf-8"?>
<!-- Svg Vector Icons : http://www.onlinewebfonts.com/icon -->
<!DOCTYPE svg PUBLIC "-//W3C//DTD SVG 1.1//EN" "http://www.w3.org/Graphics/SVG/1.1/DTD/svg11.dtd">
<svg version="1.1" xmlns="http://www.w3.org/2000/svg" xmlns:xlink="http://www.w3.org/1999/xlink" x="0px" y="0px" viewBox="0 0 1000 1000" enable-background="new 0 0 1000 1000" xml:space="preserve">
<metadata> Svg Vector Icons : http://www.onlinewebfonts.com/icon </metadata>
<g><g><path d="M857.3,297.4L857.3,297.4c6.5-13.6,10.2-27.8,10.2-42.4v-61.3C867.5,92.3,703,10,500,10S132.5,92.3,132.5,193.8c0-5,0.7-9.9,1.5-14.8C58.1,212.5,10,261.6,10,316.3v61.3c0,56.8,51.7,107.6,132.7,141.3l0,0c-6.5,13.6-10.2,27.9-10.2,42.5v61.3c0,21.5,7.8,42,21.4,61.3c-13.6,19.2-21.4,39.7-21.4,61.3v61.3C132.5,907.7,297,990,500,990s367.5-82.3,367.5-183.8V745c0-21.9-8.1-42.8-22.1-62.2c-0.1,0.1-0.2,0.3-0.4,0.4c10.3-14.6,18.4-29.8,20.9-45.9c75.9-33.7,124-82.7,124-137.3v-61.3C990,381.9,938.3,331.1,857.3,297.4z M500,40.6c198.5,0,336.9,80.7,336.9,153.1c0,72.4-138.4,153.1-336.9,153.1s-336.9-80.7-336.9-153.1C163.1,121.3,301.5,40.6,500,40.6z M40.6,316.3c0-35.8,33.9-73.4,91.9-102.5V255c0,101.4,164.5,183.8,367.5,183.8c30.3,0,59.6-2,87.8-5.5c-56.2,21.6-127.5,36.1-210.3,36.1C179,469.4,40.6,388.6,40.6,316.3z M836.9,745c0,72.4-138.4,153.1-336.9,153.1S163.1,817.4,163.1,745c0-12,5.1-24.2,12.4-36.3c-0.1-0.1-0.2-0.2-0.2-0.3c61.7,58.2,183.9,97.9,324.7,97.9c141,0,262.6-40,324.2-98.3c-0.1,0.1-0.1,0.1-0.1,0.1C831.6,720.4,836.9,732.7,836.9,745z M710.4,678.2c-56.2,21.7-127.6,36.1-210.4,36.1c-198.5,0-336.9-80.8-336.9-153.1c0-10.4,3.6-20.9,9-31.3c30,10.1,63.2,18.1,98.7,23.4c45.7,75.5,185.8,130.5,351.6,130.5c30.4,0,59.9-2,88.2-5.6C710.6,678.2,710.5,678.2,710.4,678.2z M622.5,591.9c-78.6,0-147.1-12.9-202.1-32.7c172.7-10.2,309.1-79.5,323.1-166.8c41.7-18.5,75.1-41.5,96.5-67.7c-0.1,0-0.1,0-0.1,0c74.2,30.1,119.4,73.2,119.4,114.1C959.4,511.1,821,591.9,622.5,591.9z M565.4,238.4c0-6.5-5.1-11.4-15.4-14.7c-10.3-3.3-33.2-7.7-68.7-12.8c-31.9-4.5-56.8-9-74.8-13.4s-32.5-10.6-43.7-18.5c-11.2-8-16.8-17.3-16.8-27.9c0-13.9,10-26.4,30-37.6c20-11.1,51.4-17.8,94.4-20.3V71.3h58v21.9c64.8,3.2,106.8,18.2,125.9,45.1l-79.9,13.4c-15.6-18.4-39.7-27.6-72.3-27.6c-16.4,0-29.5,2-39.4,6.2c-9.9,4.1-14.9,9.1-14.9,15c0,6,4.8,10.5,14.4,13.8c9.5,3.2,30,7.1,61.4,11.8c34.5,5.1,61.5,10,81.1,14.6c19.6,4.5,35.2,10.9,47,19c11.7,8.1,17.5,17.5,17.5,28.3c0,16.6-12.1,30.4-36.2,41.5c-24.1,11.1-58.9,17.6-104.4,19.6V322h-58v-28.2c-75.9-3.2-122.9-21.3-141-54.2l89.7-9.6c8.3,20.7,35.8,31,82.5,31c21.8,0,38-2.2,48.3-6.6S565.4,244.7,565.4,238.4z"/></g><g></g><g></g><g></g><g></g><g></g><g></g><g></g><g></g><g></g><g></g><g></g><g></g><g></g><g></g><g></g></g>
</svg>