<?xml version="1.0" encoding="utf-8"?>
<!-- Svg Vector Icons : http://www.onlinewebfonts.com/icon -->
<!DOCTYPE svg PUBLIC "-//W3C//DTD SVG 1.1//EN" "http://www.w3.org/Graphics/SVG/1.1/DTD/svg11.dtd">
<svg version="1.1" xmlns="http://www.w3.org/2000/svg" xmlns:xlink="http://www.w3.org/1999/xlink" x="0px" y="0px" viewBox="0 0 1000 1000" enable-background="new 0 0 1000 1000" xml:space="preserve">
<metadata> Svg Vector Icons : http://www.onlinewebfonts.com/icon </metadata>
<g><g transform="translate(0.000000,512.000000) scale(0.100000,-0.100000)"><path d="M3966.4,4581.7v-440.2l-166.5-49.8c-227.8-68.9-553.2-204.8-756.1-312l-168.4-90L2569.1,3996l-306.3,306.3l-721.6-723.5l-723.5-721.6l306.2-306.2l304.3-304.3l-116.8-235.4c-128.2-254.6-237.3-526.4-290.9-723.5l-34.5-124.4l-444.1-5.7l-442.1-3.8V120V-913.6l442.1-3.8l442.2-5.7l53.6-172.3c74.6-250.7,139.7-407.7,271.8-673.8l118.7-237.3L1124-2310.9l-306.2-306.3l723.5-721.6l721.6-723.5l304.3,304.3l306.3,306.3l235.4-118.7c268-134,451.7-206.7,691-281.4l166.5-49.8v-440.2V-4780H5000h1033.6v438.3v440.2l168.4,49.8c225.8,68.9,551.2,204.8,754.1,312l168.4,90l306.3-306.3l306.2-306.3l721.6,723.5l723.5,721.6L8876-2310.9l-306.3,306.3l122.5,241.2c135.9,273.7,195.2,419.2,269.9,668l53.6,172.3l442.2,5.7l442.1,3.8V120v1033.6l-442.1,3.8l-442.2,5.7l-53.6,172.3c-74.7,248.8-132.1,390.5-269.9,666.1l-120.6,243.1l304.3,306.3l306.3,306.2l-723.5,721.6l-721.6,723.5l-304.3-304.3l-306.3-306.3l-235.4,118.7c-268,134-451.7,206.7-691,281.4l-166.5,49.8v440.2V5020H5000H3966.4V4581.7z M5669.9,4277.3v-398.1l277.5-80.4c390.5-111,625.9-208.6,947.5-386.6l277.5-153.1l281.4,281.4l283.3,283.3l478.5-478.5l478.5-478.5l-277.5-277.5c-153.1-153.1-277.5-283.3-277.5-289c0-5.7,67-132.1,149.3-279.5c179.9-321.6,283.3-574.2,390.5-951.3l78.5-279.5h400h398.1V120v-669.9h-398.1h-400l-78.5-279.4c-126.3-444.1-220.1-658.4-503.4-1150.4l-45.9-82.3l281.4-281.4l283.3-283.3l-478.5-478.5l-478.5-478.5l-283.3,283.3l-281.4,281.4l-271.8-149.3c-321.6-178-568.5-279.5-949.4-390.5l-281.4-80.4v-398.1v-398.1H5000h-669.9v400v398.1l-193.3,51.7c-428.7,116.7-752.2,248.8-1115.9,459.4l-191.4,109.1l-283.3-283.3l-283.3-283.3l-478.5,478.5l-478.5,478.5l281.4,281.4c243.1,243.1,279.4,289,262.2,317.7c-11.5,19.1-82.3,145.5-156.9,281.4c-168.4,306.3-266.1,551.3-371.3,914.9l-78.5,281.4h-400H444.5V120v669.9h398.1h400l78.5,279.5c107.2,377.1,210.5,629.7,390.5,951.3c82.3,147.4,149.3,273.7,149.3,279.5c0,5.7-124.4,135.9-277.5,289l-277.5,277.5l478.5,478.5l478.5,478.5l283.3-283.3l283.3-283.3l210.5,118.7c375.2,214.4,668,335,1096.8,449.8l193.3,51.7v398.1v400H5000h669.9V4277.3z"/><path d="M4741.6,1982.4c-641.2-101.4-1171.4-499.6-1447-1085.3c-97.6-208.6-149.3-432.6-164.6-691C3084-682,3681.2-1482.1,4552.1-1702.2c243.1-61.3,652.7-61.3,895.8,0c616.3,155,1121.6,620.2,1326.4,1219.3c350.3,1029.8-254.6,2145.7-1315,2423.2C5298.6,1980.5,4887.1,2005.4,4741.6,1982.4z M5229.7,1630.2c333.1-53.6,597.2-191.4,844.1-436.4c185.7-185.7,296.7-361.8,369.4-580c193.3-580,44-1179.1-398.1-1598.2c-415.3-396.2-987.6-522.5-1535.1-340.7c-222,74.7-396.2,183.7-583.8,371.3c-264.1,264.1-400,545.5-444.1,914.9c-36.4,312,38.3,654.6,201,934.1c101.4,174.2,367.5,440.2,541.7,541.7C4527.2,1613,4896.6,1685.7,5229.7,1630.2z"/></g></g>
</svg>