<?xml version="1.0" encoding="utf-8"?>
<!-- Svg Vector Icons : http://www.onlinewebfonts.com/icon -->
<!DOCTYPE svg PUBLIC "-//W3C//DTD SVG 1.1//EN" "http://www.w3.org/Graphics/SVG/1.1/DTD/svg11.dtd">
<svg version="1.1" xmlns="http://www.w3.org/2000/svg" xmlns:xlink="http://www.w3.org/1999/xlink" x="0px" y="0px" viewBox="0 0 1000 1000" enable-background="new 0 0 1000 1000" xml:space="preserve">
<metadata> Svg Vector Icons : http://www.onlinewebfonts.com/icon </metadata>
<g><path d="M990,731.8V142.4C990,69.6,931.2,10,859.2,10H678.9H456.7H140.8C68.8,10,10,69.6,10,142.4v701.9c0,72.8,58.8,132.4,130.8,132.4H709c10.9,0,19.8-8.8,19.8-19.8c0-10.9-8.8-19.8-19.8-19.8H140.8c-50.1,0-91.3-41.8-91.3-92.9V142.4c0-51.1,41.2-92.9,91.3-92.9h315.9h222.2h180.3c50.1,0,91.3,41.8,91.3,92.9v589.4c0,10.9,8.8,19.8,19.8,19.8C981.2,751.6,990,742.7,990,731.8L990,731.8z M251.8,261.5h444.1c10.9,0,19.8-8.8,19.8-19.8c0-10.9-8.8-19.8-19.8-19.8H251.8c-10.9,0-19.8,8.8-19.8,19.8C232.1,252.6,240.9,261.5,251.8,261.5L251.8,261.5z M251.8,420.4h182.9c10.9,0,19.8-8.8,19.8-19.8c0-10.9-8.8-19.8-19.8-19.8H251.8c-10.9,0-19.8,8.8-19.8,19.8C232.1,411.6,240.9,420.4,251.8,420.4L251.8,420.4z M251.8,592.6h65.3c10.9,0,19.8-8.8,19.8-19.8c0-10.9-8.8-19.8-19.8-19.8h-65.3c-10.9,0-19.8,8.8-19.8,19.8C232.1,583.8,240.9,592.6,251.8,592.6L251.8,592.6z M251.8,764.8h65.3c10.9,0,19.8-8.8,19.8-19.8s-8.8-19.8-19.8-19.8h-65.3c-10.9,0-19.8,8.8-19.8,19.8S240.9,764.8,251.8,764.8L251.8,764.8z M629.4,407.4c-118.5,0-214.5,97.3-214.5,217.2c0,119.9,96,217.2,214.5,217.2c118.5,0,214.5-97.3,214.5-217.2C843.9,504.7,748,407.4,629.4,407.4L629.4,407.4z M629.4,446.9c96.6,0,175,79.5,175,177.7c0,98.2-78.4,177.7-175,177.7s-175-79.5-175-177.7C454.4,526.4,532.9,446.9,629.4,446.9L629.4,446.9z M984.3,956.4l-203-205.9c-7.7-7.8-20.2-7.9-27.9-0.2c-7.8,7.7-7.9,20.2-0.2,27.9l203,205.9c7.7,7.8,20.2,7.9,27.9,0.2C991.9,976.6,992,964.1,984.3,956.4L984.3,956.4z"/></g>
</svg>