<?xml version="1.0" encoding="utf-8"?>
<!-- Svg Vector Icons : http://www.onlinewebfonts.com/icon -->
<!DOCTYPE svg PUBLIC "-//W3C//DTD SVG 1.1//EN" "http://www.w3.org/Graphics/SVG/1.1/DTD/svg11.dtd">
<svg version="1.1" xmlns="http://www.w3.org/2000/svg" xmlns:xlink="http://www.w3.org/1999/xlink" x="0px" y="0px" viewBox="0 0 1000 1000" enable-background="new 0 0 1000 1000" xml:space="preserve">
<metadata> Svg Vector Icons : http://www.onlinewebfonts.com/icon </metadata>
<g><g transform="translate(0.000000,511.000000) scale(0.100000,-0.100000)"><path d="M4790.6,4517.5c-168.1-31.8-413.5-168.1-561.2-309c-125-118.1-197.7-236.3-699.8-1120.1c-309-543-1183.8-2072.1-1942.6-3396.8C828.1-1633,189.6-2764.6,169.2-2823.6c-104.5-311.3-90.9-590.7,43.2-877c150-315.8,461.2-543,817.9-595.3c222.7-31.8,7763.7-29.5,7963.7,2.3c424.9,65.9,774.8,393.1,874.7,817.9c70.4,297.7,25,536.2-165.8,881.6C9596-2398.7,8001,391.4,6183.3,3565.5c-334,581.7-445.3,720.3-665.7,838.4C5283.6,4528.8,5042.8,4567.5,4790.6,4517.5z M5245,3929c43.2-22.7,106.8-70.4,138.6-106.8c34.1-34.1,329.5-533.9,656.6-1108.8c329.5-574.8,772.5-1351.9,988.4-1726.8C8859.9-2205.6,9312-3007.7,9337-3100.8c63.6-256.7-54.5-511.2-297.6-640.7c-77.3-40.9-218.1-43.2-4032.9-43.2H1053l-106.8,52.3c-136.3,68.2-254.5,202.2-290.8,336.3c-34.1,122.7-18.2,315.8,34.1,420.3c43.2,84.1,2651.5,4651,3405.9,5959.7c493,854.3,520.3,890.7,745.2,970.2C4979.1,4004,5115.5,3994.9,5245,3929z"/><path d="M4756.5,2559c-220.4-72.7-379.4-218.1-481.7-436.2c-61.3-129.5-63.6-152.2-63.6-454.4c2.3-361.3,20.4-486.2,206.8-1306.5c193.1-858.8,279.5-1311,311.3-1640.4l27.3-302.2l252.2-6.8l252.2-6.8l13.6,211.3c25,372.6,84.1,761.2,186.3,1206.5c54.5,240.8,136.3,595.3,179.5,788.4c186.3,815.7,220.4,1215.6,127.3,1460.9c-65.9,175-254.5,379.4-413.5,447.6C5206.4,2586.2,4897.4,2604.4,4756.5,2559z"/><path d="M4795.1-1853.4c-170.4-47.7-247.7-93.2-365.8-213.6c-331.7-329.5-318.1-870.2,27.3-1172.4c165.9-143.1,322.6-202.2,549.9-202.2c161.3-2.3,202.2,6.8,334,72.7c370.3,181.8,549.8,574.8,436.2,958.8c-20.4,65.9-59.1,156.8-86.3,202.2c-75,118.2-249.9,272.6-372.6,324.9C5181.4-1821.7,4951.9-1810.3,4795.1-1853.4z"/></g></g>
</svg>