<?xml version="1.0" encoding="utf-8"?>
<svg version="1.1" id="Layer_1" xmlns="http://www.w3.org/2000/svg" xmlns:xlink="http://www.w3.org/1999/xlink" x="0px"
     y="0px" viewBox="0 0 85.79 122.88" style="enable-background:new 0 0 85.79 122.88" xml:space="preserve"><style type="text/css">.st0{fill-rule:evenodd;clip-rule:evenodd;}</style>
    <g><path class="st0" d="M60.47,89.65l3.89-19.79l3.95,5.95c8.5-3.41,13.28-9.04,13.99-17.71c6.98,12.21,2.74,23.16-6.11,29.57 l4.03,6.07L60.47,89.65L60.47,89.65L60.47,89.65L60.47,89.65z M9.74,77.85L6.26,97.58c-0.05,0.27-0.16,0.52-0.33,0.71 c-1.24,1.6-2.02,2.98-2.25,4.09c-0.16,0.82,0,1.48,0.55,2l13.61,13.61c0.86,0.83,1.87,1.35,3.07,1.57c1.31,0.25,2.84,0.11,4.6-0.37 c0.03,0,0.07-0.01,0.1-0.01c0.67-0.18,1.54-0.4,2.38-0.6c3.65-0.89,6.83-1.67,9.78-4.34l3.8-3.96c0.04-0.07,0.1-0.12,0.15-0.18 c0.05-0.05,0.42-0.42,0.93-0.9c2.6-2.54,5.81-5.67,3.85-8.42l-1.52-1.52c-0.74,0.71-1.52,1.41-2.27,2.08 c-0.68,0.6-1.33,1.16-1.91,1.75c-0.63,0.63-1.64,0.63-2.27,0c-0.63-0.63-0.63-1.64,0-2.27c0.59-0.59,1.31-1.23,2.06-1.9 c2.57-2.27,5.52-4.86,3.93-7.13l-1.5-1.5c-0.08-0.08-0.15-0.18-0.22-0.27c-0.86,0.89-1.82,1.74-2.75,2.55 c-0.68,0.6-1.33,1.16-1.91,1.75c-0.63,0.63-1.64,0.63-2.27,0c-0.63-0.63-0.63-1.64,0-2.27c0.59-0.59,1.31-1.23,2.06-1.9 c2.57-2.27,5.52-4.86,3.94-7.13l-1.5-1.5c-0.11-0.11-0.19-0.22-0.26-0.34l-4.41,4.41c-0.63,0.63-1.64,0.63-2.27,0 c-0.63-0.63-0.63-1.64,0-2.27l8.27-8.27c1.98-1.98,2.43-4.04,1.91-5.6c-0.19-0.57-0.51-1.08-0.9-1.48c-0.2-0.2-0.44-0.39-0.69-0.54 l-0.01,0c-0.12,0.06-0.21-0.07-0.33-0.18c-0.14-0.07-0.29-0.13-0.45-0.18c-1.38-0.45-3.15-0.13-4.97,1.39 c-0.02,0.03-0.05,0.05-0.08,0.06c-0.2,0.17-0.39,0.35-0.59,0.54L18.44,86.23c-0.63,0.63-1.64,0.63-2.27,0 c-0.57-0.57-0.62-1.47-0.15-2.1L9.74,77.85L9.74,77.85L9.74,77.85z M20.61,79.52l0.55-0.55l11.33-11.33 c-1.17-0.54-2.27-1.31-3.23-2.27c-4.31-4.31-4.31-11.28,0-15.59c4.31-4.31,11.28-4.31,15.59,0c4.31,4.31,4.31,11.28,0,15.59 c-0.04,0.04-0.07,0.07-0.11,0.11c0.09,0.08,0.17,0.16,0.25,0.24c0.35,0.35,0.66,0.74,0.93,1.15l14.05-14.05 c-2.16-2.16-2.16-5.67,0-7.83L49.5,34.51c-2.16,2.16-5.67,2.16-7.83,0L12.55,63.63c2.16,2.16,2.16,5.67,0,7.83L20.61,79.52 L20.61,79.52L20.61,79.52z M45.31,75.79c-0.38,0.53-0.82,1.05-1.33,1.56L42.33,79l-0.01-0.04c0.12,0.07,0.23,0.15,0.34,0.26 l1.57,1.57c0.08,0.08,0.16,0.19,0.23,0.29c1.76,2.42,1.49,4.58,0.29,6.54c0.22,0.08,0.42,0.2,0.59,0.37l1.57,1.57 c0.08,0.08,0.16,0.19,0.23,0.29c1.9,2.61,1.42,4.89,0,6.97c0.07,0.04,0.12,0.1,0.19,0.16l1.57,1.57c0.08,0.08,0.16,0.19,0.23,0.29 c3.65,4.99-0.7,9.22-4.19,12.64l-0.9,0.9l-3.89,4.09l-0.12,0.12c-3.57,3.24-7.11,4.1-11.19,5.1c-0.68,0.16-1.38,0.34-2.34,0.59 c-0.03,0-0.04,0.01-0.07,0.01c-2.21,0.6-4.22,0.75-6.03,0.42c-1.83-0.33-3.42-1.15-4.74-2.45L2.07,106.67 c-1.38-1.33-1.84-2.97-1.46-4.91c0.3-1.56,1.2-3.28,2.62-5.14l3.63-20.58v-0.08C6.9,75.71,6.95,75.42,7,75.12l-7-7l46.2-46.2 l26.49,26.49L45.31,75.79L45.31,75.79L45.31,75.79z M35.85,4.09l-3.89,19.79l-3.95-5.95c-8.5,3.41-13.28,9.04-13.99,17.7 c-6.99-12.21-2.74-23.16,6.11-29.57L16.1,0L35.85,4.09L35.85,4.09L35.85,4.09L35.85,4.09z"/></g></svg>