<?xml version="1.0" encoding="UTF-8" standalone="no" ?>
<!DOCTYPE svg PUBLIC "-//W3C//DTD SVG 1.1//EN" "http://www.w3.org/Graphics/SVG/1.1/DTD/svg11.dtd">
<svg xmlns="http://www.w3.org/2000/svg" xmlns:xlink="http://www.w3.org/1999/xlink" version="1.1" width="1080" height="1080" viewBox="0 0 1080 1080" xml:space="preserve">
<desc>Created with Fabric.js 5.2.4</desc>
<defs>
</defs>
<g transform="matrix(1 0 0 1 540 540)" id="112dbbee-0d47-44cb-af7f-fc4f74035d40"  >
<rect style="stroke: none; stroke-width: 1; stroke-dasharray: none; stroke-linecap: butt; stroke-dashoffset: 0; stroke-linejoin: miter; stroke-miterlimit: 4; fill: rgb(255,255,255); fill-rule: nonzero; opacity: 1; visibility: hidden;" vector-effect="non-scaling-stroke"  x="-540" y="-540" rx="0" ry="0" width="1080" height="1080" />
</g>
<g transform="matrix(1 0 0 1 540 540)" id="8a6bdfe5-b864-4593-b47c-de0172956f6b"  >
</g>
<g transform="matrix(1 0 0 1 540 540)"  >
<g style="" vector-effect="non-scaling-stroke"   >
		<g transform="matrix(1 0 0 1 52.5 63.44)"  >
<path style="stroke: none; stroke-width: 1; stroke-dasharray: none; stroke-linecap: butt; stroke-dashoffset: 0; stroke-linejoin: miter; stroke-miterlimit: 4; fill: rgb(255,255,255); fill-rule: nonzero; opacity: 1;" vector-effect="non-scaling-stroke"  transform=" translate(-258.2, -294.86)" d="M 312.4 294.46 C 312.4 305.35999999999996 288.09999999999997 314.96 258.2 314.96 C 228.3 314.96 204 305.35999999999996 204 294.46 C 204 283.56 228.3 274.76 258.2 274.76 C 288.09999999999997 274.76 312.4 283.56 312.4 294.46 Z" stroke-linecap="round" />
</g>
		<g transform="matrix(1 0 0 1 52.7 63.04)"  >
<ellipse style="stroke: none; stroke-width: 1; stroke-dasharray: none; stroke-linecap: butt; stroke-dashoffset: 0; stroke-linejoin: miter; stroke-miterlimit: 4; fill: rgb(233,218,140); fill-rule: nonzero; opacity: 1;" vector-effect="non-scaling-stroke"  cx="0" cy="0" rx="50" ry="18.2" />
</g>
		<g transform="matrix(1 0 0 1 52.5 55.66)"  >
<path style="stroke: none; stroke-width: 1; stroke-dasharray: none; stroke-linecap: butt; stroke-dashoffset: 0; stroke-linejoin: miter; stroke-miterlimit: 4; fill: rgb(255,255,255); fill-rule: nonzero; opacity: 1;" vector-effect="non-scaling-stroke"  transform=" translate(-258.2, -287.08)" d="M 312.4 286.66 C 312.4 297.56 288.09999999999997 307.16 258.2 307.16 C 228.3 307.16 204 297.56 204 286.66 C 204 275.76000000000005 228.3 267 258.2 267 C 288.09999999999997 267 312.4 275.76 312.4 286.66 Z" stroke-linecap="round" />
</g>
		<g transform="matrix(1 0 0 1 52.7 55.24)"  >
<ellipse style="stroke: none; stroke-width: 1; stroke-dasharray: none; stroke-linecap: butt; stroke-dashoffset: 0; stroke-linejoin: miter; stroke-miterlimit: 4; fill: rgb(233,218,140); fill-rule: nonzero; opacity: 1;" vector-effect="non-scaling-stroke"  cx="0" cy="0" rx="50" ry="18.2" />
</g>
		<g transform="matrix(1 0 0 1 52.5 47.44)"  >
<path style="stroke: none; stroke-width: 1; stroke-dasharray: none; stroke-linecap: butt; stroke-dashoffset: 0; stroke-linejoin: miter; stroke-miterlimit: 4; fill: rgb(255,255,255); fill-rule: nonzero; opacity: 1;" vector-effect="non-scaling-stroke"  transform=" translate(-258.2, -278.86)" d="M 312.4 278.46 C 312.4 289.35999999999996 288.09999999999997 298.96 258.2 298.96 C 228.3 298.96 204 289.35999999999996 204 278.46 C 204 267.56 228.3 258.76 258.2 258.76 C 288.09999999999997 258.76 312.4 267.56 312.4 278.46 Z" stroke-linecap="round" />
</g>
		<g transform="matrix(1 0 0 1 52.7 47.04)"  >
<ellipse style="stroke: none; stroke-width: 1; stroke-dasharray: none; stroke-linecap: butt; stroke-dashoffset: 0; stroke-linejoin: miter; stroke-miterlimit: 4; fill: rgb(233,218,140); fill-rule: nonzero; opacity: 1;" vector-effect="non-scaling-stroke"  cx="0" cy="0" rx="50" ry="18.2" />
</g>
		<g transform="matrix(1 0 0 1 52.5 39.66)"  >
<path style="stroke: none; stroke-width: 1; stroke-dasharray: none; stroke-linecap: butt; stroke-dashoffset: 0; stroke-linejoin: miter; stroke-miterlimit: 4; fill: rgb(255,255,255); fill-rule: nonzero; opacity: 1;" vector-effect="non-scaling-stroke"  transform=" translate(-258.2, -271.08)" d="M 312.4 270.66 C 312.4 281.56 288.09999999999997 291.16 258.2 291.16 C 228.3 291.16 204 281.56 204 270.66 C 204 259.76000000000005 228.3 251 258.2 251 C 288.09999999999997 251 312.4 259.76 312.4 270.66 Z" stroke-linecap="round" />
</g>
		<g transform="matrix(1 0 0 1 52.7 39.24)"  >
<ellipse style="stroke: none; stroke-width: 1; stroke-dasharray: none; stroke-linecap: butt; stroke-dashoffset: 0; stroke-linejoin: miter; stroke-miterlimit: 4; fill: rgb(233,218,140); fill-rule: nonzero; opacity: 1;" vector-effect="non-scaling-stroke"  cx="0" cy="0" rx="50" ry="18.2" />
</g>
		<g transform="matrix(1 0 0 1 52.5 31.44)"  >
<path style="stroke: none; stroke-width: 1; stroke-dasharray: none; stroke-linecap: butt; stroke-dashoffset: 0; stroke-linejoin: miter; stroke-miterlimit: 4; fill: rgb(255,255,255); fill-rule: nonzero; opacity: 1;" vector-effect="non-scaling-stroke"  transform=" translate(-258.2, -262.86)" d="M 312.4 262.46 C 312.4 273.35999999999996 288.09999999999997 282.96 258.2 282.96 C 228.3 282.96 204 273.35999999999996 204 262.46 C 204 251.56 228.3 242.76 258.2 242.76 C 288.09999999999997 242.76 312.4 251.56 312.4 262.46 Z" stroke-linecap="round" />
</g>
		<g transform="matrix(1 0 0 1 52.7 31.04)"  >
<ellipse style="stroke: none; stroke-width: 1; stroke-dasharray: none; stroke-linecap: butt; stroke-dashoffset: 0; stroke-linejoin: miter; stroke-miterlimit: 4; fill: rgb(233,218,140); fill-rule: nonzero; opacity: 1;" vector-effect="non-scaling-stroke"  cx="0" cy="0" rx="50" ry="18.2" />
</g>
		<g transform="matrix(1 0 0 1 52.9 23.24)"  >
<path style="stroke: none; stroke-width: 1; stroke-dasharray: none; stroke-linecap: butt; stroke-dashoffset: 0; stroke-linejoin: miter; stroke-miterlimit: 4; fill: rgb(255,255,255); fill-rule: nonzero; opacity: 1;" vector-effect="non-scaling-stroke"  transform=" translate(-258.6, -254.66)" d="M 312.8 254.26 C 312.8 265.15999999999997 288.5 274.76 258.6 274.76 C 228.70000000000005 274.76 204.40000000000003 265.15999999999997 204.40000000000003 254.26 C 204.40000000000003 243.36 228.70000000000005 234.56 258.6 234.56 C 288.5 234.56 312.8 243.36 312.8 254.26 Z" stroke-linecap="round" />
</g>
		<g transform="matrix(1 0 0 1 53.1 22.84)"  >
<ellipse style="stroke: none; stroke-width: 1; stroke-dasharray: none; stroke-linecap: butt; stroke-dashoffset: 0; stroke-linejoin: miter; stroke-miterlimit: 4; fill: rgb(233,218,140); fill-rule: nonzero; opacity: 1;" vector-effect="non-scaling-stroke"  cx="0" cy="0" rx="50" ry="18.2" />
</g>
		<g transform="matrix(1 0 0 1 52.9 15.44)"  >
<path style="stroke: none; stroke-width: 1; stroke-dasharray: none; stroke-linecap: butt; stroke-dashoffset: 0; stroke-linejoin: miter; stroke-miterlimit: 4; fill: rgb(255,255,255); fill-rule: nonzero; opacity: 1;" vector-effect="non-scaling-stroke"  transform=" translate(-258.6, -246.86)" d="M 312.8 246.46 C 312.8 257.36 288.5 266.96000000000004 258.6 266.96000000000004 C 228.70000000000005 266.96000000000004 204.40000000000003 257.36 204.40000000000003 246.46000000000004 C 204.40000000000003 235.56000000000006 228.70000000000005 226.76000000000005 258.6 226.76000000000005 C 288.5 226.76000000000005 312.8 235.56 312.8 246.46 Z" stroke-linecap="round" />
</g>
		<g transform="matrix(1 0 0 1 53.1 15.04)"  >
<ellipse style="stroke: none; stroke-width: 1; stroke-dasharray: none; stroke-linecap: butt; stroke-dashoffset: 0; stroke-linejoin: miter; stroke-miterlimit: 4; fill: rgb(233,218,140); fill-rule: nonzero; opacity: 1;" vector-effect="non-scaling-stroke"  cx="0" cy="0" rx="50" ry="18.2" />
</g>
		<g transform="matrix(1 0 0 1 52.9 7.24)"  >
<path style="stroke: none; stroke-width: 1; stroke-dasharray: none; stroke-linecap: butt; stroke-dashoffset: 0; stroke-linejoin: miter; stroke-miterlimit: 4; fill: rgb(255,255,255); fill-rule: nonzero; opacity: 1;" vector-effect="non-scaling-stroke"  transform=" translate(-258.6, -238.66)" d="M 312.8 238.26 C 312.8 249.16 288.5 258.76 258.6 258.76 C 228.70000000000005 258.76 204.40000000000003 249.16 204.40000000000003 238.26 C 204.40000000000003 227.35999999999999 228.70000000000005 218.56 258.6 218.56 C 288.5 218.56 312.8 227.36 312.8 238.26 Z" stroke-linecap="round" />
</g>
		<g transform="matrix(1 0 0 1 53.1 6.84)"  >
<ellipse style="stroke: none; stroke-width: 1; stroke-dasharray: none; stroke-linecap: butt; stroke-dashoffset: 0; stroke-linejoin: miter; stroke-miterlimit: 4; fill: rgb(233,218,140); fill-rule: nonzero; opacity: 1;" vector-effect="non-scaling-stroke"  cx="0" cy="0" rx="50" ry="18.2" />
</g>
		<g transform="matrix(1 0 0 1 52.9 -0.56)"  >
<path style="stroke: none; stroke-width: 1; stroke-dasharray: none; stroke-linecap: butt; stroke-dashoffset: 0; stroke-linejoin: miter; stroke-miterlimit: 4; fill: rgb(255,255,255); fill-rule: nonzero; opacity: 1;" vector-effect="non-scaling-stroke"  transform=" translate(-258.6, -230.86)" d="M 312.8 230.46 C 312.8 241.36 288.5 250.96 258.6 250.96 C 228.70000000000005 250.96 204.40000000000003 241.36 204.40000000000003 230.46 C 204.40000000000003 219.56 228.70000000000005 210.76000000000002 258.6 210.76000000000002 C 288.5 210.76000000000002 312.8 219.56 312.8 230.46 Z" stroke-linecap="round" />
</g>
		<g transform="matrix(1 0 0 1 53.1 -0.96)"  >
<ellipse style="stroke: none; stroke-width: 1; stroke-dasharray: none; stroke-linecap: butt; stroke-dashoffset: 0; stroke-linejoin: miter; stroke-miterlimit: 4; fill: rgb(233,218,140); fill-rule: nonzero; opacity: 1;" vector-effect="non-scaling-stroke"  cx="0" cy="0" rx="50" ry="18.2" />
</g>
		<g transform="matrix(1 0 0 1 52.9 -8.76)"  >
<path style="stroke: none; stroke-width: 1; stroke-dasharray: none; stroke-linecap: butt; stroke-dashoffset: 0; stroke-linejoin: miter; stroke-miterlimit: 4; fill: rgb(255,255,255); fill-rule: nonzero; opacity: 1;" vector-effect="non-scaling-stroke"  transform=" translate(-258.6, -222.66)" d="M 312.8 222.26 C 312.8 233.16 288.5 242.76 258.6 242.76 C 228.70000000000005 242.76 204.40000000000003 233.16 204.40000000000003 222.26 C 204.40000000000003 211.35999999999999 228.70000000000005 202.56 258.6 202.56 C 288.5 202.56 312.8 211.36 312.8 222.26 Z" stroke-linecap="round" />
</g>
		<g transform="matrix(1 0 0 1 53.1 -9.16)"  >
<ellipse style="stroke: none; stroke-width: 1; stroke-dasharray: none; stroke-linecap: butt; stroke-dashoffset: 0; stroke-linejoin: miter; stroke-miterlimit: 4; fill: rgb(233,218,140); fill-rule: nonzero; opacity: 1;" vector-effect="non-scaling-stroke"  cx="0" cy="0" rx="50" ry="18.2" />
</g>
		<g transform="matrix(1 0 0 1 52.5 -16.96)"  >
<path style="stroke: none; stroke-width: 1; stroke-dasharray: none; stroke-linecap: butt; stroke-dashoffset: 0; stroke-linejoin: miter; stroke-miterlimit: 4; fill: rgb(255,255,255); fill-rule: nonzero; opacity: 1;" vector-effect="non-scaling-stroke"  transform=" translate(-258.2, -214.46)" d="M 312.4 214.06 C 312.4 224.96 288.09999999999997 234.56 258.2 234.56 C 228.3 234.56 204 225 204 214.06 C 204 203.12 228.3 194.36 258.2 194.36 C 288.09999999999997 194.36 312.4 203.16 312.4 214.06 Z" stroke-linecap="round" />
</g>
		<g transform="matrix(1 0 0 1 52.7 -17.36)"  >
<ellipse style="stroke: none; stroke-width: 1; stroke-dasharray: none; stroke-linecap: butt; stroke-dashoffset: 0; stroke-linejoin: miter; stroke-miterlimit: 4; fill: rgb(233,218,140); fill-rule: nonzero; opacity: 1;" vector-effect="non-scaling-stroke"  cx="0" cy="0" rx="50" ry="18.2" />
</g>
		<g transform="matrix(1 0 0 1 52.5 -25.16)"  >
<path style="stroke: none; stroke-width: 1; stroke-dasharray: none; stroke-linecap: butt; stroke-dashoffset: 0; stroke-linejoin: miter; stroke-miterlimit: 4; fill: rgb(255,255,255); fill-rule: nonzero; opacity: 1;" vector-effect="non-scaling-stroke"  transform=" translate(-258.2, -206.26)" d="M 312.4 205.86 C 312.4 216.76000000000002 288.09999999999997 226.36 258.2 226.36 C 228.3 226.36 204 216.76000000000002 204 205.86 C 204 194.96 228.3 186.16000000000003 258.2 186.16000000000003 C 288.09999999999997 186.16000000000003 312.4 195 312.4 205.86 Z" stroke-linecap="round" />
</g>
		<g transform="matrix(1 0 0 1 52.7 -25.56)"  >
<ellipse style="stroke: none; stroke-width: 1; stroke-dasharray: none; stroke-linecap: butt; stroke-dashoffset: 0; stroke-linejoin: miter; stroke-miterlimit: 4; fill: rgb(233,218,140); fill-rule: nonzero; opacity: 1;" vector-effect="non-scaling-stroke"  cx="0" cy="0" rx="50" ry="18.2" />
</g>
		<g transform="matrix(1 0 0 1 52.9 -33.34)"  >
<path style="stroke: none; stroke-width: 1; stroke-dasharray: none; stroke-linecap: butt; stroke-dashoffset: 0; stroke-linejoin: miter; stroke-miterlimit: 4; fill: rgb(255,255,255); fill-rule: nonzero; opacity: 1;" vector-effect="non-scaling-stroke"  transform=" translate(-258.6, -198.08)" d="M 312.8 197.66 C 312.8 208.56 288.5 218.16 258.6 218.16 C 228.70000000000005 218.16 204.40000000000003 208.56 204.40000000000003 197.66 C 204.40000000000003 186.76 228.7 178 258.6 178 C 288.50000000000006 178 312.8 186.76 312.8 197.66 Z" stroke-linecap="round" />
</g>
		<g transform="matrix(1 0 0 1 53.1 -33.76)"  >
<ellipse style="stroke: none; stroke-width: 1; stroke-dasharray: none; stroke-linecap: butt; stroke-dashoffset: 0; stroke-linejoin: miter; stroke-miterlimit: 4; fill: rgb(233,218,140); fill-rule: nonzero; opacity: 1;" vector-effect="non-scaling-stroke"  cx="0" cy="0" rx="50" ry="18.2" />
</g>
		<g transform="matrix(1 0 0 1 52.9 -41.16)"  >
<path style="stroke: none; stroke-width: 1; stroke-dasharray: none; stroke-linecap: butt; stroke-dashoffset: 0; stroke-linejoin: miter; stroke-miterlimit: 4; fill: rgb(255,255,255); fill-rule: nonzero; opacity: 1;" vector-effect="non-scaling-stroke"  transform=" translate(-258.6, -190.26)" d="M 312.8 189.86 C 312.8 200.76000000000002 288.5 210.36 258.6 210.36 C 228.70000000000005 210.36 204.40000000000003 200.76000000000002 204.40000000000003 189.86 C 204.40000000000003 178.96 228.70000000000005 170.16000000000003 258.6 170.16000000000003 C 288.5 170.16000000000003 312.8 179 312.8 189.86 Z" stroke-linecap="round" />
</g>
		<g transform="matrix(1 0 0 1 53.1 -41.56)"  >
<ellipse style="stroke: none; stroke-width: 1; stroke-dasharray: none; stroke-linecap: butt; stroke-dashoffset: 0; stroke-linejoin: miter; stroke-miterlimit: 4; fill: rgb(233,218,140); fill-rule: nonzero; opacity: 1;" vector-effect="non-scaling-stroke"  cx="0" cy="0" rx="50" ry="18.2" />
</g>
		<g transform="matrix(1 0 0 1 52.9 -49.34)"  >
<path style="stroke: none; stroke-width: 1; stroke-dasharray: none; stroke-linecap: butt; stroke-dashoffset: 0; stroke-linejoin: miter; stroke-miterlimit: 4; fill: rgb(255,255,255); fill-rule: nonzero; opacity: 1;" vector-effect="non-scaling-stroke"  transform=" translate(-258.6, -182.08)" d="M 312.8 181.66 C 312.8 192.56 288.5 202.16 258.6 202.16 C 228.70000000000005 202.16 204.40000000000003 192.56 204.40000000000003 181.66 C 204.40000000000003 170.76 228.7 162 258.6 162 C 288.50000000000006 162 312.8 170.76 312.8 181.66 Z" stroke-linecap="round" />
</g>
		<g transform="matrix(1 0 0 1 53.1 -49.76)"  >
<ellipse style="stroke: none; stroke-width: 1; stroke-dasharray: none; stroke-linecap: butt; stroke-dashoffset: 0; stroke-linejoin: miter; stroke-miterlimit: 4; fill: rgb(233,218,140); fill-rule: nonzero; opacity: 1;" vector-effect="non-scaling-stroke"  cx="0" cy="0" rx="50" ry="18.2" />
</g>
		<g transform="matrix(1 0 0 1 52.9 -57.16)"  >
<path style="stroke: none; stroke-width: 1; stroke-dasharray: none; stroke-linecap: butt; stroke-dashoffset: 0; stroke-linejoin: miter; stroke-miterlimit: 4; fill: rgb(255,255,255); fill-rule: nonzero; opacity: 1;" vector-effect="non-scaling-stroke"  transform=" translate(-258.6, -174.26)" d="M 312.8 173.86 C 312.8 184.76000000000002 288.5 194.36 258.6 194.36 C 228.70000000000005 194.36 204.40000000000003 184.76000000000002 204.40000000000003 173.86 C 204.40000000000003 162.96 228.70000000000005 154.16000000000003 258.6 154.16000000000003 C 288.5 154.16000000000003 312.8 163 312.8 173.86 Z" stroke-linecap="round" />
</g>
		<g transform="matrix(1 0 0 1 53.1 -57.56)"  >
<ellipse style="stroke: none; stroke-width: 1; stroke-dasharray: none; stroke-linecap: butt; stroke-dashoffset: 0; stroke-linejoin: miter; stroke-miterlimit: 4; fill: rgb(233,218,140); fill-rule: nonzero; opacity: 1;" vector-effect="non-scaling-stroke"  cx="0" cy="0" rx="50" ry="18.2" />
</g>
		<g transform="matrix(1 0 0 1 52.9 -65.34)"  >
<path style="stroke: none; stroke-width: 1; stroke-dasharray: none; stroke-linecap: butt; stroke-dashoffset: 0; stroke-linejoin: miter; stroke-miterlimit: 4; fill: rgb(255,255,255); fill-rule: nonzero; opacity: 1;" vector-effect="non-scaling-stroke"  transform=" translate(-258.6, -166.08)" d="M 312.8 165.66 C 312.8 176.56 288.5 186.16 258.6 186.16 C 228.70000000000005 186.16 204.40000000000003 176.56 204.40000000000003 165.66 C 204.40000000000003 154.76 228.7 146 258.6 146 C 288.50000000000006 146 312.8 154.76 312.8 165.66 Z" stroke-linecap="round" />
</g>
		<g transform="matrix(1 0 0 1 53.1 -65.76)"  >
<ellipse style="stroke: none; stroke-width: 1; stroke-dasharray: none; stroke-linecap: butt; stroke-dashoffset: 0; stroke-linejoin: miter; stroke-miterlimit: 4; fill: rgb(233,218,140); fill-rule: nonzero; opacity: 1;" vector-effect="non-scaling-stroke"  cx="0" cy="0" rx="50" ry="18.2" />
</g>
		<g transform="matrix(1 0 0 1 54.21 -65.96)"  >
<path style="stroke: none; stroke-width: 1; stroke-dasharray: none; stroke-linecap: butt; stroke-dashoffset: 0; stroke-linejoin: miter; stroke-miterlimit: 4; fill: rgb(77,77,77); fill-rule: nonzero; opacity: 1;" vector-effect="non-scaling-stroke"  transform=" translate(-259.91, -165.46)" d="M 259.3 155.66 C 258.8740130129789 155.65457275075687 258.46388580287237 155.82140033724573 258.16264307005906 156.12264307005904 C 257.86140033724575 156.42388580287235 257.6945727507569 156.8340130129789 257.7 157.26 L 257.7 157.26 C 257.6945727507569 157.6859869870211 257.86140033724575 158.09611419712763 258.16264307005906 158.39735692994094 C 258.46388580287237 158.69859966275425 258.8740130129789 158.8654272492431 259.3 158.85999999999999 L 260.40000000000003 158.85999999999999 C 260.82598698702117 158.8654272492431 261.2361141971277 158.69859966275425 261.537356929941 158.39735692994094 C 261.8385996627543 158.0961141971276 262.00542724924316 157.6859869870211 262.00000000000006 157.26 L 262.00000000000006 157.26 C 262.00542724924316 156.8340130129789 261.8385996627543 156.42388580287238 261.537356929941 156.12264307005904 C 261.2361141971277 155.82140033724573 260.82598698702117 155.65457275075687 260.40000000000003 155.66 Z M 259.40000000000003 171.85999999999999 C 258.4721641409847 171.8861516466254 257.72615164662545 172.63216414098468 257.70000000000005 173.55999999999997 L 257.70000000000005 173.55999999999997 C 257.72615164662545 174.48783585901526 258.4721641409847 175.23384835337455 259.40000000000003 175.25999999999996 L 260.3 175.25999999999996 C 261.22783585901533 175.23384835337455 261.9738483533746 174.48783585901526 262 173.55999999999997 L 262 173.55999999999997 C 261.9738483533746 172.63216414098468 261.22783585901533 171.8861516466254 260.3 171.85999999999999 Z M 267.3 161.55999999999997 C 267.74049211817675 161.85481694258533 268.2800007591502 161.96271867078002 268.8 161.85999999999999 L 269.1 161.76 C 270.3 161.45999999999998 270.6 160.06 269.40000000000003 159.56 L 269.40000000000003 159.56 C 268.08499282876494 159.00095850081212 266.7089111547338 158.59820288890057 265.3 158.36 C 263.41947728717605 158.0179665941937 261.5113513339811 157.8505871246152 259.6 157.86 C 257.62276285907717 157.86023862377374 255.6490793916303 158.02749993457434 253.7 158.36 C 252.23982460376854 158.56744310258398 250.82204222711377 159.0062805048819 249.50000000000003 159.66000000000003 Q 248.00000000000003 160.41000000000003 248.00000000000003 161.46000000000004 C 247.98071840471505 162.17129637626974 248.36893318909884 162.8312615097222 249.00000000000003 163.16000000000003 C 249.78576223261686 163.71602738291017 250.6670895186731 164.1227938226284 251.60000000000002 164.36 C 252.65114488068798 164.6853050430407 253.71943449678562 164.95237744706512 254.8 165.16000000000003 C 256 165.36 257.1 165.56000000000003 258 165.66000000000003 C 259.5 165.86 261 166.06000000000003 262.4 166.36 C 263.5962805465965 166.57927641353788 264.76844595894516 166.9141808170661 265.9 167.36 C 266.79999999999995 167.76000000000002 267.29999999999995 168.26000000000002 267.29999999999995 168.96 C 267.2538052204235 169.49542430028887 266.9571579510925 169.9774761129518 266.49999999999994 170.26000000000002 C 265.80158053213586 170.69274463476697 265.01621429705057 170.96591549914447 264.19999999999993 171.06000000000003 C 262.94622783887 171.28430745505028 261.6734378189765 171.38479087767345 260.3999999999999 171.36000000000004 C 258.9230618219289 171.38957159431058 257.4473934942105 171.25541992815437 255.99999999999991 170.96000000000004 C 254.82707434802472 170.72938718905328 253.68572939105906 170.36012852650555 252.5999999999999 169.86000000000004 C 251.89999999999992 169.46000000000004 251.1999999999999 169.06000000000003 250.5999999999999 168.66000000000005 C 250.14104412001302 168.31927768589475 249.56530098309673 168.1753419016657 248.99999999999991 168.26000000000005 L 248.99999999999991 168.26000000000005 C 248.38074480339063 168.30366276529125 247.8682436761106 168.75826394965105 247.75100861413037 169.3678862719482 C 247.63377355215016 169.97750859424536 247.94110868185876 170.58977059725683 248.49999999999991 170.86000000000004 L 249.0999999999999 171.16000000000005 C 250.66818293991872 171.8302418151505 252.3144339033856 172.3005992332839 253.99999999999991 172.56000000000006 C 255.98379618999672 172.8837297702425 257.9899836575491 173.0509120592052 259.9999999999999 173.06000000000006 C 262.2432859400993 173.07794998741446 264.48422641891074 172.91071562332405 266.6999999999999 172.56000000000006 C 268.12472506785707 172.3497281962404 269.48831609160794 171.8383815623338 270.6999999999999 171.06000000000006 C 271.50551699392184 170.60725812116917 272.0310292601318 169.7814531314107 272.09999999999985 168.86000000000007 C 272.11928159528486 168.14870362373037 271.73106681090104 167.4887384902779 271.09999999999985 167.16000000000008 C 270.3512515067938 166.6035127943266 269.50252321018996 166.19612321195675 268.59999999999985 165.9600000000001 C 267.5181459308048 165.62337685616112 266.4159041117708 165.35616671821347 265.29999999999984 165.16000000000008 C 264.09999999999985 164.9600000000001 262.99999999999983 164.76000000000008 261.99999999999983 164.66000000000008 C 260.3999999999998 164.4600000000001 258.8999999999998 164.16000000000008 257.49999999999983 163.9600000000001 C 256.34030851063574 163.77028329774868 255.20167742347945 163.4688809511485 254.09999999999982 163.0600000000001 C 253.19999999999982 162.66000000000008 252.7999999999998 162.26000000000008 252.7999999999998 161.76000000000008 C 252.81294499831566 161.29239898357136 253.0818910785217 160.8697694289619 253.4999999999998 160.66000000000008 C 254.16046835119366 160.32156253712952 254.86856284132236 160.08553104041997 255.5999999999998 159.9600000000001 C 256.86229305175135 159.82686911274521 258.1307058774964 159.76011054296916 259.3999999999998 159.7600000000001 C 260.67886165879617 159.7226219377518 261.95695101517947 159.85715765947637 263.1999999999998 160.1600000000001 C 264.10845240926903 160.3219834878638 264.9858157782886 160.62568619252443 265.79999999999984 161.06000000000012 C 266.32624288359233 161.1340736024679 266.8345615316453 161.30351315181883 267.3 161.56 Z" stroke-linecap="round" />
</g>
		<g transform="matrix(1 0 0 1 52.65 -48.36)"  >
<path style="stroke: none; stroke-width: 1; stroke-dasharray: none; stroke-linecap: butt; stroke-dashoffset: 0; stroke-linejoin: miter; stroke-miterlimit: 4; fill: rgb(77,77,77); fill-rule: nonzero; opacity: 1;" vector-effect="non-scaling-stroke"  transform=" translate(-258.35, -183.06)" d="M 258.4 194.16 C 232.79999999999998 194.16 206.39999999999998 186.66 206.39999999999998 174.06 C 206.39999999999998 172.95543050033842 207.2954305003384 172.06 208.39999999999998 172.06 C 209.50456949966156 172.06 210.39999999999998 172.95543050033842 210.39999999999998 174.06 C 210.39999999999998 181.66 230.09999999999997 190.16 258.4 190.16 C 267.9280551699134 190.2421918995003 277.43086900588736 189.16766878023824 286.7 186.96 C 287.6579940752039 186.89366627028315 288.5279160851811 187.517566117892 288.77230291593435 188.44623607475413 C 289.0166897466875 189.37490603161626 288.5665528961521 190.34618978988635 287.7 190.76000000000002 C 278.11650717226553 193.12834972577366 268.27117703575226 194.27081124332128 258.4 194.16 Z M 302.5 184.56 C 301.8207480901695 184.55408691370698 301.18674000446055 184.218435574214 300.8 183.66 C 300.492011570622 183.22336012762585 300.37155179806024 182.68163354218117 300.4654824543691 182.15562186685162 C 300.55941311067795 181.62961019152206 300.8599228897866 181.16305674030426 301.3 180.85999999999999 C 303.6 179.26 306.3 176.85999999999999 306.3 173.95999999999998 C 306.3 172.8554305003384 307.19543050033843 171.95999999999998 308.3 171.95999999999998 C 309.4045694996616 171.95999999999998 310.3 172.8554305003384 310.3 173.95999999999998 C 310.3 176.55999999999997 309.1 180.35999999999999 303.5 184.15999999999997 C 303.2525194370098 184.4493772406781 302.8787805736675 184.59887278601508 302.5 184.56 Z" stroke-linecap="round" />
</g>
		<g transform="matrix(1 0 0 1 52.65 -41.31)"  >
<path style="stroke: none; stroke-width: 1; stroke-dasharray: none; stroke-linecap: butt; stroke-dashoffset: 0; stroke-linejoin: miter; stroke-miterlimit: 4; fill: rgb(77,77,77); fill-rule: nonzero; opacity: 1;" vector-effect="non-scaling-stroke"  transform=" translate(-258.35, -190.11)" d="M 258.4 201.16 C 250.79356095987086 201.16146096846188 243.20035980904555 200.5259066871153 235.69999999999996 199.26000000000002 C 234.92025187188366 199.22861069927555 234.22997497906928 198.74655334563354 233.93199215227256 198.02530535330698 C 233.6340093254758 197.3040573609804 233.78274971095266 196.4753609276093 234.31296125544637 195.90276320705283 C 234.84317279994005 195.33016548649636 235.65800776892814 195.11825641574194 236.39999999999998 195.35999999999999 C 243.66537063676174 196.62234137548063 251.02578056400773 197.25801314192458 258.4 197.25999999999996 C 286.7 197.26 306.4 188.76 306.4 181.06 C 306.4 179.95543050033842 307.2954305003384 179.06 308.4 179.06 C 309.50456949966156 179.06 310.4 179.95543050033842 310.4 181.06 C 310.4 193.66 283.9 201.16 258.4 201.16 Z M 214.89999999999998 192.06 C 214.51384336347746 192.05477418557538 214.13534190032726 191.95154651380713 213.79999999999998 191.76 C 207.6 187.85999999999999 206.29999999999998 183.76 206.29999999999998 181.06 C 206.29999999999998 179.95543050033842 207.1954305003384 179.06 208.29999999999998 179.06 C 209.40456949966156 179.06 210.29999999999998 179.95543050033842 210.29999999999998 181.06 C 210.29999999999998 184.16 213.39999999999998 186.76 215.99999999999997 188.36 C 216.92675181887728 188.97582666164996 217.1930397587876 190.21850371456472 216.59999999999997 191.16000000000003 C 216.2242733881501 191.73069590606144 215.58320022302587 192.07008758171546 214.9 192.06 Z" stroke-linecap="round" />
</g>
		<g transform="matrix(1 0 0 1 53.5 23.54)"  >
<path style="stroke: none; stroke-width: 1; stroke-dasharray: none; stroke-linecap: butt; stroke-dashoffset: 0; stroke-linejoin: miter; stroke-miterlimit: 4; fill: rgb(77,77,77); fill-rule: nonzero; opacity: 1;" vector-effect="non-scaling-stroke"  transform=" translate(-259.2, -254.96)" d="M 259.2 266.06 C 251.58849369377063 266.0794706776685 243.99084157557374 265.4100740152723 236.49999999999997 264.06 C 235.72025187188365 264.0286106992756 235.02997497906924 263.5465533456336 234.73199215227248 262.825305353307 C 234.4340093254757 262.10405736098045 234.58274971095256 261.2753609276093 235.1129612554463 260.7027632070528 C 235.64317279994003 260.1301654864963 236.45800776892816 259.91825641574195 237.2 260.16 C 244.45886142537879 261.47182933705295 251.82370875758218 262.107884333925 259.2 262.06 C 287.5 262.06 307.2 253.56 307.2 245.86 C 307.2 244.75543050033843 308.0954305003384 243.86 309.2 243.86 C 310.30456949966157 243.86 311.2 244.75543050033843 311.2 245.86 C 311.3 258.46 284.8 266.06 259.2 266.06 Z M 215.79999999999998 256.86 C 215.41384336347747 256.85477418557537 215.03534190032727 256.75154651380717 214.7 256.56 C 208.5 252.66 207.2 248.56 207.2 245.86 C 207.2 244.75543050033843 208.0954305003384 243.86 209.2 243.86 C 210.30456949966157 243.86 211.2 244.75543050033843 211.2 245.86 C 211.2 248.96 214.29999999999998 251.56 216.89999999999998 253.16000000000003 C 217.82675181887728 253.77582666164997 218.0930397587876 255.01850371456473 217.49999999999997 255.96000000000004 C 217.1242733881501 256.53069590606145 216.48320022302588 256.87008758171544 215.8 256.86 Z" stroke-linecap="round" />
</g>
		<g transform="matrix(1 0 0 1 52.7 -32.76)"  >
<path style="stroke: none; stroke-width: 1; stroke-dasharray: none; stroke-linecap: butt; stroke-dashoffset: 0; stroke-linejoin: miter; stroke-miterlimit: 4; fill: rgb(77,77,77); fill-rule: nonzero; opacity: 1;" vector-effect="non-scaling-stroke"  transform=" translate(-258.4, -198.66)" d="M 258.4 209.76 C 232.79999999999998 209.76 206.39999999999998 202.26 206.39999999999998 189.56 C 206.39999999999998 188.45543050033842 207.2954305003384 187.56 208.39999999999998 187.56 C 209.50456949966156 187.56 210.39999999999998 188.45543050033842 210.39999999999998 189.56 C 210.39999999999998 197.16 230.09999999999997 205.76 258.4 205.76 C 259.50456949966156 205.76 260.4 206.6554305003384 260.4 207.76 C 260.4 208.86456949966157 259.50456949966156 209.76 258.4 209.76 Z M 282.5 207.56 C 281.5513194105993 207.53181728673817 280.73574228866045 206.8793555891871 280.5 205.96 C 280.31266531796456 204.8623203456214 281.0147054413292 203.80926016057447 282.1 203.56 C 296.6 200.66 306.40000000000003 195.06 306.40000000000003 189.66 C 306.40000000000003 188.55543050033842 307.29543050033845 187.66 308.40000000000003 187.66 C 309.5045694996616 187.66 310.40000000000003 188.55543050033842 310.40000000000003 189.66 C 310.40000000000003 197.35999999999999 300.1 204.06 282.90000000000003 207.56 Z" stroke-linecap="round" />
</g>
		<g transform="matrix(1 0 0 1 53.55 32.14)"  >
<path style="stroke: none; stroke-width: 1; stroke-dasharray: none; stroke-linecap: butt; stroke-dashoffset: 0; stroke-linejoin: miter; stroke-miterlimit: 4; fill: rgb(77,77,77); fill-rule: nonzero; opacity: 1;" vector-effect="non-scaling-stroke"  transform=" translate(-259.25, -263.56)" d="M 259.2 274.66 C 233.6 274.66 207.2 267.16 207.2 254.46000000000004 C 207.2 253.35543050033846 208.0954305003384 252.46000000000004 209.2 252.46000000000004 C 210.30456949966157 252.46000000000004 211.2 253.35543050033846 211.2 254.46000000000004 C 211.2 262.06000000000006 230.89999999999998 270.66 259.2 270.66 C 260.30456949966157 270.66 261.2 271.55543050033845 261.2 272.66 C 261.2 273.7645694996616 260.30456949966157 274.66 259.2 274.66 Z M 283.4 272.36 C 282.4513194105993 272.3318172867382 281.6357422886604 271.6793555891871 281.4 270.76 C 281.2126653179646 269.6623203456214 281.9147054413292 268.6092601605745 283 268.36 C 297.5 265.46000000000004 307.3 259.86 307.3 254.46 C 307.3 253.35543050033843 308.19543050033843 252.46 309.3 252.46 C 310.4045694996616 252.46 311.3 253.35543050033843 311.3 254.46 C 311.3 262.16 301 268.86 283.8 272.36 Z" stroke-linecap="round" />
</g>
		<g transform="matrix(1 0 0 1 52.6 -24.23)"  >
<path style="stroke: none; stroke-width: 1; stroke-dasharray: none; stroke-linecap: butt; stroke-dashoffset: 0; stroke-linejoin: miter; stroke-miterlimit: 4; fill: rgb(77,77,77); fill-rule: nonzero; opacity: 1;" vector-effect="non-scaling-stroke"  transform=" translate(-258.3, -207.19)" d="M 258.2 217.56 C 252.28308275364523 217.55481289449756 246.37203027068568 217.18745935035884 240.5 216.46 C 237.6 216.06 234.8 215.56 232.2 215.06 C 231.67097141218443 214.9618012770544 231.2074237418081 214.64612236323708 230.92224971849703 214.18984392593936 C 230.63707569518596 213.73356548864163 230.5564469989982 213.17856221595645 230.7 212.66 C 230.81904698173116 212.14265419600582 231.1388916138968 211.69386282288318 231.5890652051994 211.41250432831905 C 232.039238796502 211.1311458337549 232.58280340890954 211.04030642901932 233.1 211.16 C 235.6 211.66 238.29999999999998 212.16 241.1 212.56 C 246.80452611966416 213.2876942978887 252.54924934230345 213.65508938770867 258.3 213.66000000000003 C 286 213.66 304.7 205.76 306.2 198.46 C 306.4209138999323 197.35543050033843 307.4954305003384 196.6390861000677 308.6 196.86 C 309.7045694996616 197.08091389993234 310.4209138999323 198.15543050033844 310.2 199.26000000000002 C 307.9 209.86 286.1 217.56 258.2 217.56 Z M 215.7 209.06 C 215.34543570412532 209.05376924790227 214.9994421656005 208.94997118634484 214.7 208.76 C 209.89999999999998 205.95999999999998 207.1 202.76 206.39999999999998 199.26 C 206.17908610006765 198.1554305003384 206.8954305003384 197.0809138999323 207.99999999999997 196.85999999999999 C 209.10456949966155 196.63908610006766 210.17908610006765 197.3554305003384 210.39999999999998 198.45999999999998 C 210.89999999999998 200.76 213.09999999999997 203.15999999999997 216.79999999999998 205.35999999999999 C 217.26648764659112 205.61056172463174 217.607250886049 206.04442646742405 217.74014048018842 206.55700061624742 C 217.8730300743278 207.06957476507083 217.78598877605546 207.6143517954228 217.49999999999997 208.05999999999997 C 217.0817186776449 208.64796252490152 216.42019227634927 209.015477192288 215.7 209.06 Z" stroke-linecap="round" />
</g>
		<g transform="matrix(1 0 0 1 53.5 40.62)"  >
<path style="stroke: none; stroke-width: 1; stroke-dasharray: none; stroke-linecap: butt; stroke-dashoffset: 0; stroke-linejoin: miter; stroke-miterlimit: 4; fill: rgb(77,77,77); fill-rule: nonzero; opacity: 1;" vector-effect="non-scaling-stroke"  transform=" translate(-259.2, -272.04)" d="M 259.1 282.46 C 253.18308275364527 282.45481289449754 247.27203027068575 282.0874593503588 241.40000000000003 281.35999999999996 C 238.50000000000003 280.96 235.80000000000004 280.46 233.10000000000002 279.96 C 232.02304473783 279.7114718625761 231.35147186257618 278.63695526217003 231.60000000000005 277.56 C 231.8485281374239 276.48304473782997 232.92304473783 275.8114718625761 234.00000000000003 276.06 C 236.50000000000003 276.56 239.20000000000002 277.06 242.00000000000003 277.46 C 247.7045261196642 278.18769429788864 253.44924934230346 278.5550893877087 259.20000000000005 278.56000000000006 C 286.90000000000003 278.56 305.6 270.66 307.1 263.36 C 307.32091389993235 262.25543050033843 308.3954305003384 261.5390861000677 309.50000000000006 261.76000000000005 C 310.60456949966164 261.9809138999323 311.32091389993235 263.05543050033845 311.1 264.16 C 308.8 274.66 287 282.46 259.1 282.46 Z M 216.60000000000002 273.85999999999996 C 216.24543570412536 273.8537692479022 215.89944216560053 273.7499711863448 215.60000000000002 273.55999999999995 C 210.8 270.75999999999993 208.00000000000003 267.55999999999995 207.3 264.05999999999995 C 207.07908610006768 262.95543050033837 207.79543050033843 261.88091389993224 208.9 261.65999999999997 C 210.00456949966159 261.43908610006764 211.07908610006768 262.15543050033835 211.3 263.25999999999993 C 211.8 265.55999999999995 214 267.9599999999999 217.70000000000002 270.1599999999999 C 218.16648764659115 270.41056172463163 218.50725088604904 270.84442646742394 218.64014048018845 271.3570006162474 C 218.77303007432783 271.86957476507075 218.6859887760555 272.41435179542276 218.4 272.8599999999999 C 217.98171867764495 273.44796252490147 217.3201922763493 273.815477192288 216.6 273.86 Z" stroke-linecap="round" />
</g>
		<g transform="matrix(1 0 0 1 52.55 -15.84)"  >
<path style="stroke: none; stroke-width: 1; stroke-dasharray: none; stroke-linecap: butt; stroke-dashoffset: 0; stroke-linejoin: miter; stroke-miterlimit: 4; fill: rgb(77,77,77); fill-rule: nonzero; opacity: 1;" vector-effect="non-scaling-stroke"  transform=" translate(-258.25, -215.58)" d="M 258.2 226 C 230.29999999999998 226 208.5 218.3 206.29999999999998 207.6 C 206.07908610006766 206.49543050033841 206.7954305003384 205.42091389993232 207.89999999999998 205.2 C 209.00456949966156 204.97908610006766 210.07908610006766 205.6954305003384 210.29999999999998 206.79999999999998 C 211.79999999999998 214.1 230.6 221.99999999999997 258.2 221.99999999999997 C 265.33925119441653 222.03085878120214 272.4671734200373 221.4284991565018 279.5 220.19999999999996 C 280.24199223107183 219.95825641574191 281.0568272000599 220.17016548649633 281.58703874455364 220.7427632070528 C 282.1172502890473 221.31536092760928 282.2659906745242 222.14405736098038 281.96800784772745 222.86530535330695 C 281.67002502093067 223.58655334563352 280.9797481281163 224.06861069927552 280.2 224.09999999999997 C 272.9411385746212 225.4118293370529 265.57629124241777 226.047884333925 258.2 226 Z M 299.2 218.3 C 298.44661204115437 218.28109593952544 297.7605028395362 217.861806982981 297.4 217.20000000000002 C 297.15786056875453 216.72319486509463 297.1167547190036 216.1692777313101 297.2858625664963 215.66195418883214 C 297.4549704139889 215.15463064635415 297.8202053740604 214.73616044917708 298.29999999999995 214.50000000000003 C 302.9 212.20000000000002 305.69999999999993 209.40000000000003 306.19999999999993 206.80000000000004 C 306.42091389993226 205.69543050033846 307.49543050033833 204.97908610006772 308.59999999999997 205.20000000000005 C 309.70456949966155 205.42091389993237 310.42091389993226 206.49543050033847 310.19999999999993 207.60000000000005 C 309.3999999999999 211.50000000000006 305.99999999999994 215.10000000000005 300.19999999999993 218.00000000000006 C 299.89148290151104 218.16341144052228 299.5490401758173 218.25244654920263 299.2 218.26 Z" stroke-linecap="round" />
</g>
		<g transform="matrix(1 0 0 1 52.55 -8.08)"  >
<path style="stroke: none; stroke-width: 1; stroke-dasharray: none; stroke-linecap: butt; stroke-dashoffset: 0; stroke-linejoin: miter; stroke-miterlimit: 4; fill: rgb(77,77,77); fill-rule: nonzero; opacity: 1;" vector-effect="non-scaling-stroke"  transform=" translate(-258.25, -223.34)" d="M 258.2 233.76 C 257.0954305003384 233.76 256.2 232.86456949966157 256.2 231.76 C 256.2 230.6554305003384 257.0954305003384 229.76 258.2 229.76 C 285.9 229.76 304.59999999999997 221.85999999999999 306.09999999999997 214.56 C 306.3209138999323 213.45543050033842 307.39543050033836 212.73908610006768 308.5 212.96 C 309.6045694996616 213.18091389993234 310.3209138999323 214.25543050033843 310.09999999999997 215.36 C 307.9 226.06 286.1 233.76 258.2 233.76 Z M 243 233 L 242.8 233 C 222.10000000000002 230.6 208.10000000000002 223.9 206.4 215.5 C 206.17908610006768 214.39543050033842 206.89543050033842 213.32091389993232 208 213.1 C 209.10456949966158 212.87908610006767 210.17908610006768 213.5954305003384 210.4 214.7 C 211.70000000000002 221.1 225.3 227 243.3 229.1 C 243.83150846895933 229.15046800347662 244.32077504439656 229.4113538506952 244.65886014432257 229.824568972827 C 244.9969452442486 230.23778409495878 245.15578056470298 230.76902278716332 245.10000000000002 231.29999999999998 C 244.85601283078975 232.27066243564298 244.00019045036856 232.96347102931728 243 233 Z" stroke-linecap="round" />
</g>
		<g transform="matrix(1 0 0 1 53.45 49.02)"  >
<path style="stroke: none; stroke-width: 1; stroke-dasharray: none; stroke-linecap: butt; stroke-dashoffset: 0; stroke-linejoin: miter; stroke-miterlimit: 4; fill: rgb(77,77,77); fill-rule: nonzero; opacity: 1;" vector-effect="non-scaling-stroke"  transform=" translate(-259.15, -280.44)" d="M 259.1 290.86 C 257.99543050033844 290.86 257.1 289.9645694996616 257.1 288.86 C 257.1 287.75543050033843 257.99543050033844 286.86 259.1 286.86 C 286.8 286.86 305.5 278.96000000000004 307 271.66 C 307.2209138999323 270.55543050033845 308.2954305003384 269.83908610006773 309.40000000000003 270.06000000000006 C 310.5045694996616 270.28091389993233 311.2209138999323 271.35543050033846 311 272.46000000000004 C 308.8 283.06 287 290.86 259.1 290.86 Z M 243.90000000000003 289.96000000000004 L 243.70000000000005 289.96000000000004 C 223.00000000000006 287.56000000000006 209.00000000000006 280.86 207.30000000000004 272.46000000000004 C 207.0790861000677 271.35543050033846 207.79543050033845 270.28091389993233 208.90000000000003 270.06000000000006 C 210.0045694996616 269.83908610006773 211.0790861000677 270.55543050033845 211.30000000000004 271.66 C 212.60000000000005 278.06 226.20000000000005 283.96000000000004 244.20000000000005 285.96000000000004 C 244.73150846895936 286.01046800347666 245.2207750443966 286.2713538506952 245.5588601443226 286.68456897282704 C 245.89694524424863 287.09778409495885 246.055780564703 287.62902278716336 246.00000000000006 288.16 C 245.81806650259608 289.1898837508329 244.94486047272528 289.95497855795776 243.9 290 Z" stroke-linecap="round" />
</g>
		<g transform="matrix(1 0 0 1 52.55 0.16)"  >
<path style="stroke: none; stroke-width: 1; stroke-dasharray: none; stroke-linecap: butt; stroke-dashoffset: 0; stroke-linejoin: miter; stroke-miterlimit: 4; fill: rgb(77,77,77); fill-rule: nonzero; opacity: 1;" vector-effect="non-scaling-stroke"  transform=" translate(-258.25, -231.58)" d="M 258.2 242 C 230.29999999999998 242 208.5 234.3 206.29999999999998 223.6 C 206.07908610006766 222.49543050033841 206.7954305003384 221.42091389993232 207.89999999999998 221.2 C 209.00456949966156 220.97908610006766 210.07908610006766 221.6954305003384 210.29999999999998 222.79999999999998 C 211.79999999999998 230.1 230.6 237.99999999999997 258.2 237.99999999999997 C 259.30456949966157 237.99999999999997 260.2 238.8954305003384 260.2 239.99999999999997 C 260.2 241.10456949966155 259.30456949966157 241.99999999999997 258.2 241.99999999999997 Z M 284.9 239.3 C 283.9605082732237 239.30335302942356 283.15657696826906 238.62635824630385 283 237.70000000000002 C 282.88030642901936 237.18280340890956 282.9711458337549 236.639238796502 283.25250432831905 236.18906520519943 C 283.5338628228832 235.7388916138968 283.9826541960058 235.41904698173119 284.5 235.3 C 296.9 232.5 305.2 227.70000000000002 306.2 222.8 C 306.4209138999323 221.69543050033843 307.4954305003384 220.9790861000677 308.6 221.20000000000002 C 309.7045694996616 221.42091389993234 310.4209138999323 222.49543050033844 310.2 223.60000000000002 C 308.8 230.20000000000002 299.8 235.90000000000003 285.5 239.10000000000002 C 285.2 239.16 285.1 239.26 284.9 239.26 Z" stroke-linecap="round" />
</g>
		<g transform="matrix(1 0 0 1 53.45 57.22)"  >
<path style="stroke: none; stroke-width: 1; stroke-dasharray: none; stroke-linecap: butt; stroke-dashoffset: 0; stroke-linejoin: miter; stroke-miterlimit: 4; fill: rgb(77,77,77); fill-rule: nonzero; opacity: 1;" vector-effect="non-scaling-stroke"  transform=" translate(-259.15, -288.64)" d="M 259.1 299.06 C 231.20000000000002 299.06 209.40000000000003 291.36 207.20000000000002 280.66 C 206.9790861000677 279.55543050033845 207.69543050033843 278.4809138999323 208.8 278.26000000000005 C 209.9045694996616 278.0390861000677 210.9790861000677 278.75543050033843 211.20000000000002 279.86 C 212.70000000000002 287.16 231.50000000000003 295.06 259.1 295.06 C 260.2045694996616 295.06 261.1 295.9554305003384 261.1 297.06 C 261.1 298.1645694996616 260.2045694996616 299.06 259.1 299.06 Z M 285.8 296.26 C 284.8605082732237 296.2633530294235 284.05657696826904 295.5863582463038 283.90000000000003 294.65999999999997 C 283.7803064290194 294.1428034089095 283.87114583375495 293.599238796502 284.1525043283191 293.1490652051994 C 284.4338628228832 292.69889161389676 284.8826541960059 292.37904698173116 285.40000000000003 292.26 C 297.8 289.46 306.1 284.65999999999997 307.1 279.86 C 307.32091389993235 278.75543050033843 308.3954305003384 278.0390861000677 309.50000000000006 278.26000000000005 C 310.60456949966164 278.4809138999323 311.32091389993235 279.55543050033845 311.1 280.66 C 309.70000000000005 287.26000000000005 300.70000000000005 292.86 286.40000000000003 296.16 C 286.1975013069433 296.1760568232387 285.99676043610407 296.2095136350452 285.8 296.26 Z" stroke-linecap="round" />
</g>
		<g transform="matrix(1 0 0 1 52.5 8.27)"  >
<path style="stroke: none; stroke-width: 1; stroke-dasharray: none; stroke-linecap: butt; stroke-dashoffset: 0; stroke-linejoin: miter; stroke-miterlimit: 4; fill: rgb(77,77,77); fill-rule: nonzero; opacity: 1;" vector-effect="non-scaling-stroke"  transform=" translate(-258.2, -239.69)" d="M 258.2 250.16 C 253.02004767452019 250.16798241100668 247.84421752072427 249.86745033756046 242.7 249.26 C 241.5954305003384 249.14954305003383 240.78954305003384 248.16456949966158 240.89999999999998 247.06 C 241.01045694996614 245.9554305003384 241.99543050033841 245.14954305003383 243.1 245.26 C 248.07889969876538 245.83358779892373 253.08833520834443 246.10075769276796 258.1 246.06 C 285.8 246.06 304.5 238.16 306 230.86 C 306.2209138999323 229.75543050033843 307.2954305003384 229.0390861000677 308.40000000000003 229.26000000000002 C 309.5045694996616 229.48091389993235 310.2209138999323 230.55543050033845 310 231.66000000000003 C 307.9 242.46 286.1 250.16 258.2 250.16 Z M 230.29999999999998 247.16 C 230.12717817422333 247.17556399359145 229.9535416877971 247.1408366963062 229.79999999999998 247.06 C 222.49999999999997 245.26 216.49999999999997 242.76 212.39999999999998 239.86 Q 207.29999999999998 236.26000000000002 206.39999999999998 231.76000000000002 C 206.17908610006765 230.65543050033844 206.8954305003384 229.58091389993234 207.99999999999997 229.36 C 209.10456949966155 229.1390861000677 210.17908610006765 229.85543050033843 210.39999999999998 230.96 C 210.79999999999998 232.86 212.29999999999998 234.76000000000002 214.79999999999998 236.56 C 218.39999999999998 239.16 223.99999999999997 241.46 230.79999999999998 243.16 C 231.31734580399416 243.27904698173117 231.7661371771168 243.5988916138968 232.04749567168093 244.0490652051994 C 232.32885416624507 244.499238796502 232.41969357098066 245.04280340890955 232.29999999999998 245.56 C 232.03662138797552 246.46117622536602 231.23701113470392 247.10086442798328 230.3 247.16 Z" stroke-linecap="round" />
</g>
		<g transform="matrix(1 0 0 1 53.4 65.37)"  >
<path style="stroke: none; stroke-width: 1; stroke-dasharray: none; stroke-linecap: butt; stroke-dashoffset: 0; stroke-linejoin: miter; stroke-miterlimit: 4; fill: rgb(77,77,77); fill-rule: nonzero; opacity: 1;" vector-effect="non-scaling-stroke"  transform=" translate(-259.1, -296.79)" d="M 259.1 307.26 C 253.92004767452022 307.26798241100664 248.7442175207243 306.9674503375605 243.6 306.36 C 242.49543050033844 306.2495430500339 241.68954305003388 305.2645694996616 241.8 304.16 C 241.91045694996617 303.05543050033845 242.89543050033845 302.2495430500339 244.00000000000003 302.36 C 248.97889969876536 302.9335877989237 253.98833520834438 303.200757692768 258.99999999999994 303.16 C 286.7 303.16 305.4 295.26000000000005 306.9 287.96000000000004 C 307.1209138999323 286.85543050033846 308.1954305003384 286.13908610006774 309.3 286.36000000000007 C 310.4045694996616 286.58091389993234 311.1209138999323 287.65543050033847 310.9 288.76000000000005 C 308.8 299.46 287 307.26 259.1 307.26 Z M 231.20000000000002 304.15999999999997 C 231.02717817422337 304.1755639935914 230.85354168779713 304.14083669630617 230.70000000000002 304.05999999999995 C 223.4 302.25999999999993 217.4 299.75999999999993 213.3 296.85999999999996 C 209.9 294.46 207.9 291.65999999999997 207.3 288.75999999999993 C 207.07908610006768 287.65543050033835 207.79543050033843 286.5809138999322 208.9 286.35999999999996 C 210.00456949966159 286.13908610006763 211.07908610006768 286.85543050033834 211.3 287.9599999999999 C 211.70000000000002 289.8599999999999 213.20000000000002 291.75999999999993 215.70000000000002 293.55999999999995 C 219.4 296.15999999999997 224.9 298.4599999999999 231.70000000000002 300.05999999999995 C 232.2173458039942 300.1790469817311 232.66613717711684 300.4988916138967 232.94749567168097 300.94906520519936 C 233.2288541662451 301.39923879650195 233.3196935709807 301.94280340890947 233.20000000000002 302.4599999999999 C 232.97850227480336 303.40408327905305 232.1674352354905 304.093490262469 231.2 304.16 Z" stroke-linecap="round" />
</g>
		<g transform="matrix(1 0 0 1 52.55 16.22)"  >
<path style="stroke: none; stroke-width: 1; stroke-dasharray: none; stroke-linecap: butt; stroke-dashoffset: 0; stroke-linejoin: miter; stroke-miterlimit: 4; fill: rgb(77,77,77); fill-rule: nonzero; opacity: 1;" vector-effect="non-scaling-stroke"  transform=" translate(-258.25, -247.64)" d="M 258.2 258.06 C 230.29999999999998 258.06 208.5 250.36 206.29999999999998 239.66 C 206.07908610006766 238.55543050033842 206.7954305003384 237.48091389993232 207.89999999999998 237.26 C 209.00456949966156 237.03908610006766 210.07908610006766 237.7554305003384 210.29999999999998 238.85999999999999 C 211.79999999999998 246.16 230.6 254.05999999999997 258.2 254.05999999999997 C 262.2 254.05999999999997 266.2 253.85999999999999 270 253.55999999999997 C 271.1045694996616 253.4495430500338 272.0895430500338 254.25543050033838 272.2 255.35999999999996 C 272.3104569499661 256.46456949966154 271.50456949966156 257.4495430500338 270.4 257.55999999999995 C 266.4 257.86 262.3 258.06 258.2 258.06 Z M 293.5 252.76 C 292.6601678295429 252.75676995578414 291.90725173315167 252.24161683720067 291.6 251.45999999999998 C 291.24479901446534 250.41211172876137 291.77213511517397 249.26955017722597 292.8 248.85999999999999 C 300.6 246.05999999999997 305.40000000000003 242.35999999999999 306.2 238.85999999999999 C 306.4209138999323 237.7554305003384 307.4954305003384 237.03908610006766 308.6 237.26 C 309.7045694996616 237.48091389993232 310.4209138999323 238.55543050033842 310.2 239.66 C 309.09999999999997 244.76 303.59999999999997 249.26 294.3 252.66 C 293.9 252.66 293.7 252.76 293.5 252.76 Z" stroke-linecap="round" />
</g>
		<g transform="matrix(1 0 0 1 53.4 73.22)"  >
<path style="stroke: none; stroke-width: 1; stroke-dasharray: none; stroke-linecap: butt; stroke-dashoffset: 0; stroke-linejoin: miter; stroke-miterlimit: 4; fill: rgb(77,77,77); fill-rule: nonzero; opacity: 1;" vector-effect="non-scaling-stroke"  transform=" translate(-259.1, -304.64)" d="M 259.1 315.06 C 231.20000000000002 315.06 209.40000000000003 307.36 207.20000000000002 296.66 C 206.9790861000677 295.55543050033845 207.69543050033843 294.4809138999323 208.8 294.26000000000005 C 209.9045694996616 294.0390861000677 210.9790861000677 294.75543050033843 211.20000000000002 295.86 C 212.70000000000002 303.16 231.50000000000003 311.06 259.1 311.06 C 286.70000000000005 311.06 305.5 303.16 307 295.86 C 307.2209138999323 294.75543050033843 308.2954305003384 294.0390861000677 309.40000000000003 294.26000000000005 C 310.5045694996616 294.4809138999323 311.2209138999323 295.55543050033845 311 296.66 C 308.8 307.26 287 315.06 259.1 315.06 Z" stroke-linecap="round" />
</g>
		<g transform="matrix(1 0 0 1 52.65 -66.21)"  >
<path style="stroke: none; stroke-width: 1; stroke-dasharray: none; stroke-linecap: butt; stroke-dashoffset: 0; stroke-linejoin: miter; stroke-miterlimit: 4; fill: rgb(77,77,77); fill-rule: nonzero; opacity: 1;" vector-effect="non-scaling-stroke"  transform=" translate(-258.35, -165.21)" d="M 258.4 185.36 C 249.69943599602055 185.40277429069246 241.01845371750824 184.53132433223175 232.49999999999994 182.76000000000002 C 231.4230447378299 182.51147186257617 230.75147186257612 181.43695526217007 230.99999999999997 180.36 C 231.24852813742382 179.28304473782995 232.32304473782992 178.61147186257617 233.39999999999998 178.86 C 241.62553885914727 180.54853076288336 250.0029805711559 181.3862749340842 258.3999999999999 181.36 C 286.7 181.36 306.4 172.86 306.4 165.16000000000003 C 306.4 160.56000000000003 299.5 155.86 288.29999999999995 152.66000000000003 C 287.2230447378299 152.35624338759308 286.596243387593 151.23695526217006 286.9 150.16000000000003 C 287.2037566124069 149.08304473782997 288.32304473782995 148.45624338759308 289.4 148.76000000000002 C 302.7 152.46 310.4 158.46 310.4 165.06000000000003 C 310.4 177.86 283.9 185.36 258.4 185.36 Z M 218.2 178.06 C 217.8913018570801 178.0414134648357 217.58751614436173 177.97390552867606 217.29999999999998 177.86 C 208.2 173.46 206.29999999999998 168.56 206.29999999999998 165.26000000000002 C 206.29999999999998 152.66000000000003 232.79999999999998 145.06000000000003 258.29999999999995 145.06000000000003 C 259.40456949966153 145.06000000000003 260.29999999999995 145.95543050033845 260.29999999999995 147.06000000000003 C 260.29999999999995 148.1645694996616 259.40456949966153 149.06000000000003 258.29999999999995 149.06000000000003 C 229.99999999999994 149.06000000000003 210.29999999999995 157.56000000000003 210.29999999999995 165.26000000000002 C 210.29999999999995 168.36 213.39999999999995 171.56000000000003 219.09999999999997 174.26000000000002 C 219.94404662332866 174.66854521684363 220.3909180145214 175.6086584037964 220.1748044505359 176.5211378961796 C 219.95869088655041 177.43361738856277 219.13762654158558 178.07343000642558 218.19999999999996 178.06000000000003 Z" stroke-linecap="round" />
</g>
		<g transform="matrix(1 0 0 1 -53.3 63.44)"  >
<path style="stroke: none; stroke-width: 1; stroke-dasharray: none; stroke-linecap: butt; stroke-dashoffset: 0; stroke-linejoin: miter; stroke-miterlimit: 4; fill: rgb(255,255,255); fill-rule: nonzero; opacity: 1;" vector-effect="non-scaling-stroke"  transform=" translate(-152.4, -294.86)" d="M 206.6 294.46 C 206.6 305.35999999999996 182.29999999999998 314.96 152.39999999999998 314.96 C 122.49999999999997 314.96 98.19999999999997 305.35999999999996 98.19999999999997 294.46 C 98.19999999999997 283.56 122.49999999999997 274.76 152.39999999999998 274.76 C 182.29999999999998 274.76 206.6 283.56 206.6 294.46 Z" stroke-linecap="round" />
</g>
		<g transform="matrix(1 0 0 1 -53.1 63.04)"  >
<ellipse style="stroke: none; stroke-width: 1; stroke-dasharray: none; stroke-linecap: butt; stroke-dashoffset: 0; stroke-linejoin: miter; stroke-miterlimit: 4; fill: rgb(233,218,140); fill-rule: nonzero; opacity: 1;" vector-effect="non-scaling-stroke"  cx="0" cy="0" rx="50" ry="18.2" />
</g>
		<g transform="matrix(1 0 0 1 -53.3 55.66)"  >
<path style="stroke: none; stroke-width: 1; stroke-dasharray: none; stroke-linecap: butt; stroke-dashoffset: 0; stroke-linejoin: miter; stroke-miterlimit: 4; fill: rgb(255,255,255); fill-rule: nonzero; opacity: 1;" vector-effect="non-scaling-stroke"  transform=" translate(-152.4, -287.08)" d="M 206.6 286.66 C 206.6 297.56 182.29999999999998 307.16 152.39999999999998 307.16 C 122.49999999999997 307.16 98.19999999999997 297.56 98.19999999999997 286.66 C 98.19999999999997 275.76000000000005 122.5 267 152.4 267 C 182.3 267 206.6 275.76 206.6 286.66 Z" stroke-linecap="round" />
</g>
		<g transform="matrix(1 0 0 1 -53.1 55.24)"  >
<ellipse style="stroke: none; stroke-width: 1; stroke-dasharray: none; stroke-linecap: butt; stroke-dashoffset: 0; stroke-linejoin: miter; stroke-miterlimit: 4; fill: rgb(233,218,140); fill-rule: nonzero; opacity: 1;" vector-effect="non-scaling-stroke"  cx="0" cy="0" rx="50" ry="18.2" />
</g>
		<g transform="matrix(1 0 0 1 -53.3 47.44)"  >
<path style="stroke: none; stroke-width: 1; stroke-dasharray: none; stroke-linecap: butt; stroke-dashoffset: 0; stroke-linejoin: miter; stroke-miterlimit: 4; fill: rgb(255,255,255); fill-rule: nonzero; opacity: 1;" vector-effect="non-scaling-stroke"  transform=" translate(-152.4, -278.86)" d="M 206.6 278.46 C 206.6 289.35999999999996 182.29999999999998 298.96 152.39999999999998 298.96 C 122.49999999999997 298.96 98.19999999999997 289.35999999999996 98.19999999999997 278.46 C 98.19999999999997 267.56 122.49999999999997 258.76 152.39999999999998 258.76 C 182.29999999999998 258.76 206.6 267.56 206.6 278.46 Z" stroke-linecap="round" />
</g>
		<g transform="matrix(1 0 0 1 -53.1 47.04)"  >
<ellipse style="stroke: none; stroke-width: 1; stroke-dasharray: none; stroke-linecap: butt; stroke-dashoffset: 0; stroke-linejoin: miter; stroke-miterlimit: 4; fill: rgb(233,218,140); fill-rule: nonzero; opacity: 1;" vector-effect="non-scaling-stroke"  cx="0" cy="0" rx="50" ry="18.2" />
</g>
		<g transform="matrix(1 0 0 1 -53.3 39.66)"  >
<path style="stroke: none; stroke-width: 1; stroke-dasharray: none; stroke-linecap: butt; stroke-dashoffset: 0; stroke-linejoin: miter; stroke-miterlimit: 4; fill: rgb(255,255,255); fill-rule: nonzero; opacity: 1;" vector-effect="non-scaling-stroke"  transform=" translate(-152.4, -271.08)" d="M 206.6 270.66 C 206.6 281.56 182.29999999999998 291.16 152.39999999999998 291.16 C 122.49999999999997 291.16 98.19999999999997 281.56 98.19999999999997 270.66 C 98.19999999999997 259.76000000000005 122.5 251 152.4 251 C 182.3 251 206.6 259.76 206.6 270.66 Z" stroke-linecap="round" />
</g>
		<g transform="matrix(1 0 0 1 -53.1 39.24)"  >
<ellipse style="stroke: none; stroke-width: 1; stroke-dasharray: none; stroke-linecap: butt; stroke-dashoffset: 0; stroke-linejoin: miter; stroke-miterlimit: 4; fill: rgb(233,218,140); fill-rule: nonzero; opacity: 1;" vector-effect="non-scaling-stroke"  cx="0" cy="0" rx="50" ry="18.2" />
</g>
		<g transform="matrix(1 0 0 1 -53.3 31.44)"  >
<path style="stroke: none; stroke-width: 1; stroke-dasharray: none; stroke-linecap: butt; stroke-dashoffset: 0; stroke-linejoin: miter; stroke-miterlimit: 4; fill: rgb(255,255,255); fill-rule: nonzero; opacity: 1;" vector-effect="non-scaling-stroke"  transform=" translate(-152.4, -262.86)" d="M 206.6 262.46 C 206.6 273.35999999999996 182.29999999999998 282.96 152.39999999999998 282.96 C 122.49999999999997 282.96 98.19999999999997 273.35999999999996 98.19999999999997 262.46 C 98.19999999999997 251.56 122.49999999999997 242.76 152.39999999999998 242.76 C 182.29999999999998 242.76 206.6 251.56 206.6 262.46 Z" stroke-linecap="round" />
</g>
		<g transform="matrix(1 0 0 1 -53.1 31.04)"  >
<ellipse style="stroke: none; stroke-width: 1; stroke-dasharray: none; stroke-linecap: butt; stroke-dashoffset: 0; stroke-linejoin: miter; stroke-miterlimit: 4; fill: rgb(233,218,140); fill-rule: nonzero; opacity: 1;" vector-effect="non-scaling-stroke"  cx="0" cy="0" rx="50" ry="18.2" />
</g>
		<g transform="matrix(1 0 0 1 -52.9 23.24)"  >
<path style="stroke: none; stroke-width: 1; stroke-dasharray: none; stroke-linecap: butt; stroke-dashoffset: 0; stroke-linejoin: miter; stroke-miterlimit: 4; fill: rgb(255,255,255); fill-rule: nonzero; opacity: 1;" vector-effect="non-scaling-stroke"  transform=" translate(-152.8, -254.66)" d="M 207 254.26 C 207 265.15999999999997 182.7 274.76 152.8 274.76 C 122.90000000000003 274.76 98.60000000000001 265.15999999999997 98.60000000000001 254.26 C 98.60000000000001 243.36 122.9 234.56 152.8 234.56 C 182.70000000000002 234.56 207 243.36 207 254.26 Z" stroke-linecap="round" />
</g>
		<g transform="matrix(1 0 0 1 -52.7 22.84)"  >
<ellipse style="stroke: none; stroke-width: 1; stroke-dasharray: none; stroke-linecap: butt; stroke-dashoffset: 0; stroke-linejoin: miter; stroke-miterlimit: 4; fill: rgb(233,218,140); fill-rule: nonzero; opacity: 1;" vector-effect="non-scaling-stroke"  cx="0" cy="0" rx="50" ry="18.2" />
</g>
		<g transform="matrix(1 0 0 1 -52.9 15.44)"  >
<path style="stroke: none; stroke-width: 1; stroke-dasharray: none; stroke-linecap: butt; stroke-dashoffset: 0; stroke-linejoin: miter; stroke-miterlimit: 4; fill: rgb(255,255,255); fill-rule: nonzero; opacity: 1;" vector-effect="non-scaling-stroke"  transform=" translate(-152.8, -246.86)" d="M 207 246.46 C 207 257.36 182.7 266.96000000000004 152.8 266.96000000000004 C 122.90000000000003 266.96000000000004 98.60000000000001 257.36 98.60000000000001 246.46000000000004 C 98.60000000000001 235.56000000000006 122.9 226.76000000000005 152.8 226.76000000000005 C 182.70000000000002 226.76000000000005 207 235.56 207 246.46 Z" stroke-linecap="round" />
</g>
		<g transform="matrix(1 0 0 1 -52.7 15.04)"  >
<ellipse style="stroke: none; stroke-width: 1; stroke-dasharray: none; stroke-linecap: butt; stroke-dashoffset: 0; stroke-linejoin: miter; stroke-miterlimit: 4; fill: rgb(233,218,140); fill-rule: nonzero; opacity: 1;" vector-effect="non-scaling-stroke"  cx="0" cy="0" rx="50" ry="18.2" />
</g>
		<g transform="matrix(1 0 0 1 -52.9 7.24)"  >
<path style="stroke: none; stroke-width: 1; stroke-dasharray: none; stroke-linecap: butt; stroke-dashoffset: 0; stroke-linejoin: miter; stroke-miterlimit: 4; fill: rgb(255,255,255); fill-rule: nonzero; opacity: 1;" vector-effect="non-scaling-stroke"  transform=" translate(-152.8, -238.66)" d="M 207 238.26 C 207 249.16 182.7 258.76 152.8 258.76 C 122.90000000000003 258.76 98.60000000000001 249.16 98.60000000000001 238.26 C 98.60000000000001 227.35999999999999 122.9 218.56 152.8 218.56 C 182.70000000000002 218.56 207 227.36 207 238.26 Z" stroke-linecap="round" />
</g>
		<g transform="matrix(1 0 0 1 -52.7 6.84)"  >
<ellipse style="stroke: none; stroke-width: 1; stroke-dasharray: none; stroke-linecap: butt; stroke-dashoffset: 0; stroke-linejoin: miter; stroke-miterlimit: 4; fill: rgb(233,218,140); fill-rule: nonzero; opacity: 1;" vector-effect="non-scaling-stroke"  cx="0" cy="0" rx="50" ry="18.2" />
</g>
		<g transform="matrix(1 0 0 1 -52.9 -0.56)"  >
<path style="stroke: none; stroke-width: 1; stroke-dasharray: none; stroke-linecap: butt; stroke-dashoffset: 0; stroke-linejoin: miter; stroke-miterlimit: 4; fill: rgb(255,255,255); fill-rule: nonzero; opacity: 1;" vector-effect="non-scaling-stroke"  transform=" translate(-152.8, -230.86)" d="M 207 230.46 C 207 241.36 182.7 250.96 152.8 250.96 C 122.90000000000003 250.96 98.60000000000001 241.36 98.60000000000001 230.46 C 98.60000000000001 219.56 122.9 210.76000000000002 152.8 210.76000000000002 C 182.70000000000002 210.76000000000002 207 219.56 207 230.46 Z" stroke-linecap="round" />
</g>
		<g transform="matrix(1 0 0 1 -52.7 -0.96)"  >
<ellipse style="stroke: none; stroke-width: 1; stroke-dasharray: none; stroke-linecap: butt; stroke-dashoffset: 0; stroke-linejoin: miter; stroke-miterlimit: 4; fill: rgb(233,218,140); fill-rule: nonzero; opacity: 1;" vector-effect="non-scaling-stroke"  cx="0" cy="0" rx="50" ry="18.2" />
</g>
		<g transform="matrix(1 0 0 1 -52.9 -8.76)"  >
<path style="stroke: none; stroke-width: 1; stroke-dasharray: none; stroke-linecap: butt; stroke-dashoffset: 0; stroke-linejoin: miter; stroke-miterlimit: 4; fill: rgb(255,255,255); fill-rule: nonzero; opacity: 1;" vector-effect="non-scaling-stroke"  transform=" translate(-152.8, -222.66)" d="M 207 222.26 C 207 233.16 182.7 242.76 152.8 242.76 C 122.90000000000003 242.76 98.60000000000001 233.16 98.60000000000001 222.26 C 98.60000000000001 211.35999999999999 122.9 202.56 152.8 202.56 C 182.70000000000002 202.56 207 211.36 207 222.26 Z" stroke-linecap="round" />
</g>
		<g transform="matrix(1 0 0 1 -52.7 -9.16)"  >
<ellipse style="stroke: none; stroke-width: 1; stroke-dasharray: none; stroke-linecap: butt; stroke-dashoffset: 0; stroke-linejoin: miter; stroke-miterlimit: 4; fill: rgb(233,218,140); fill-rule: nonzero; opacity: 1;" vector-effect="non-scaling-stroke"  cx="0" cy="0" rx="50" ry="18.2" />
</g>
		<g transform="matrix(1 0 0 1 -51.59 -9.36)"  >
<path style="stroke: none; stroke-width: 1; stroke-dasharray: none; stroke-linecap: butt; stroke-dashoffset: 0; stroke-linejoin: miter; stroke-miterlimit: 4; fill: rgb(77,77,77); fill-rule: nonzero; opacity: 1;" vector-effect="non-scaling-stroke"  transform=" translate(-154.11, -222.06)" d="M 153.5 212.26 C 153.0740130129789 212.25457275075686 152.6638858028724 212.42140033724576 152.36264307005908 212.72264307005906 C 152.06140033724577 213.02388580287237 151.89457275075688 213.43401301297888 151.9 213.85999999999999 L 151.9 213.85999999999999 C 151.89457275075688 214.2859869870211 152.06140033724577 214.6961141971276 152.36264307005908 214.9973569299409 C 152.6638858028724 215.2985996627542 153.0740130129789 215.4654272492431 153.5 215.45999999999998 L 154.6 215.45999999999998 C 155.0259869870211 215.4654272492431 155.4361141971276 215.2985996627542 155.73735692994092 214.9973569299409 C 156.03859966275422 214.6961141971276 156.20542724924312 214.2859869870211 156.2 213.85999999999999 L 156.2 213.85999999999999 C 156.20542724924312 213.43401301297888 156.03859966275422 213.02388580287237 155.73735692994092 212.72264307005906 C 155.4361141971276 212.42140033724576 155.0259869870211 212.25457275075686 154.6 212.26 Z M 153.6 228.45999999999998 C 152.6721641409847 228.4861516466254 151.9261516466254 229.23216414098468 151.9 230.15999999999997 L 151.9 230.15999999999997 C 151.9261516466254 231.08783585901526 152.6721641409847 231.83384835337455 153.6 231.85999999999996 L 154.5 231.85999999999996 C 155.4278358590153 231.83384835337455 156.17384835337458 231.08783585901526 156.2 230.15999999999997 L 156.2 230.15999999999997 C 156.17384835337458 229.23216414098468 155.4278358590153 228.4861516466254 154.5 228.45999999999998 Z M 161.5 218.26 C 161.94049211817673 218.55481694258535 162.4800007591502 218.66271867078004 163 218.56 L 163.3 218.46 C 164.5 218.16 164.8 216.76000000000002 163.60000000000002 216.26000000000002 L 163.60000000000002 216.26000000000002 C 162.28499282876493 215.70095850081213 160.90891115473383 215.2982028889006 159.50000000000003 215.06000000000003 C 157.61947728717607 214.7179665941937 155.7113513339811 214.55058712461522 153.8 214.56000000000003 C 151.82276285907722 214.56023862377376 149.8490793916303 214.72749993457435 147.9 215.06000000000003 C 146.43982460376856 215.267443102584 145.0220422271138 215.7062805048819 143.70000000000005 216.36000000000004 Q 142.20000000000005 217.11000000000004 142.20000000000005 218.16000000000005 C 142.18071840471507 218.87129637626975 142.56893318909886 219.5312615097222 143.20000000000005 219.86000000000004 C 143.98576223261688 220.4160273829102 144.8670895186731 220.82279382262843 145.80000000000004 221.06000000000003 C 146.851144880688 221.38530504304072 147.91943449678564 221.65237744706513 149.00000000000003 221.86000000000004 C 150.20000000000002 222.06000000000003 151.30000000000004 222.26000000000005 152.20000000000002 222.36000000000004 C 153.70000000000002 222.56000000000003 155.20000000000002 222.76000000000005 156.60000000000002 223.06000000000003 C 157.79628054659653 223.2792764135379 158.9684459589452 223.6141808170661 160.10000000000002 224.06000000000003 C 161.00000000000003 224.46000000000004 161.50000000000003 224.96000000000004 161.50000000000003 225.66000000000003 C 161.45380522042356 226.1954243002889 161.15715795109253 226.6774761129518 160.70000000000002 226.96000000000004 C 160.00158053213593 227.39274463476698 159.21621429705064 227.6659154991445 158.4 227.76000000000005 C 157.1462278388701 227.9843074550503 155.87343781897653 228.08479087767347 154.6 228.06000000000006 C 153.12306182192899 228.0895715943106 151.64739349421055 227.95541992815438 150.2 227.66000000000005 C 149.0270743480248 227.4293871890533 147.88572939105913 227.06012852650557 146.79999999999998 226.56000000000006 C 146.1 226.16000000000005 145.39999999999998 225.76000000000005 144.79999999999998 225.36000000000007 C 144.3410441200131 225.01927768589476 143.7653009830968 224.8753419016657 143.2 224.96000000000006 L 143.2 224.96000000000006 C 142.5807448033907 225.00366276529127 142.06824367611068 225.45826394965107 141.95100861413044 226.06788627194823 C 141.83377355215023 226.67750859424538 142.14110868185884 227.28977059725685 142.7 227.56000000000006 L 143.29999999999998 227.86000000000007 C 144.8681829399188 228.5302418151505 146.51443390338568 229.0005992332839 148.2 229.26000000000008 C 150.1837961899968 229.5837297702425 152.1899836575492 229.7509120592052 154.2 229.76000000000008 C 156.44328594009946 229.77794998741447 158.68422641891084 229.61071562332407 160.89999999999995 229.26000000000008 C 162.32472506785717 229.0497281962404 163.68831609160804 228.53838156233383 164.89999999999998 227.76000000000008 C 165.70551699392195 227.30725812116918 166.2310292601319 226.48145313141072 166.29999999999998 225.5600000000001 C 166.31928159528496 224.8487036237304 165.93106681090117 224.18873849027793 165.29999999999998 223.8600000000001 C 164.55125150679396 223.30351279432662 163.7025232101901 222.89612321195676 162.79999999999998 222.6600000000001 C 161.71814593080495 222.32337685616113 160.6159041117709 222.0561667182135 159.49999999999997 221.8600000000001 Q 157.69999999999996 221.5600000000001 156.19999999999996 221.2600000000001 C 154.59999999999997 221.06000000000012 153.09999999999997 220.8600000000001 151.69999999999996 220.56000000000012 C 150.54030851063584 220.3702832977487 149.40167742347955 220.06888095114851 148.29999999999995 219.6600000000001 C 147.39999999999995 219.3600000000001 146.99999999999994 218.8600000000001 146.99999999999994 218.3600000000001 C 147.0129449983158 217.89239898357138 147.28189107852182 217.4697694289619 147.69999999999993 217.2600000000001 C 148.3604683511938 216.92156253712955 149.0685628413225 216.68553104042 149.79999999999993 216.56000000000012 C 151.0578001245637 216.37640617685662 152.32987676761758 216.30945477459065 153.59999999999994 216.36000000000013 C 154.87886165879627 216.32262193775182 156.15695101517963 216.4571576594764 157.39999999999995 216.76000000000013 C 158.30845240926917 216.92198348786383 159.1858157782887 217.22568619252445 159.99999999999994 217.66000000000014 C 160.54545808021064 217.71907536798977 161.06427148123382 217.926600728399 161.5 218.26 Z" stroke-linecap="round" />
</g>
		<g transform="matrix(1 0 0 1 -52.75 8.64)"  >
<path style="stroke: none; stroke-width: 1; stroke-dasharray: none; stroke-linecap: butt; stroke-dashoffset: 0; stroke-linejoin: miter; stroke-miterlimit: 4; fill: rgb(77,77,77); fill-rule: nonzero; opacity: 1;" vector-effect="non-scaling-stroke"  transform=" translate(-152.95, -240.06)" d="M 153 251.16 C 127.4 251.16 101 243.66 101 231.06 C 101 229.95543050033842 101.8954305003384 229.06 103 229.06 C 104.1045694996616 229.06 105 229.95543050033842 105 231.06 C 105 238.66 124.7 247.16 153 247.16 C 162.52805516991344 247.2421918995003 172.03086900588738 246.16766878023824 181.29999999999998 243.96 C 182.02639291263452 243.6131212287939 182.88995072128586 243.73553232146372 183.49132244683315 244.27062445666232 C 184.09269417238045 244.80571659186094 184.31466085353952 245.64918998026542 184.05457434033704 246.41098165197712 C 183.79448782713456 247.17277332368883 183.10304400304238 247.7043953723438 182.3 247.76000000000002 C 172.71758999129221 250.13433244772085 162.8714930240317 251.27688294904115 153 251.15999999999997 Z M 197.1 241.56 C 196.4207480901695 241.55408691370698 195.78674000446054 241.218435574214 195.4 240.66 C 195.09201157062202 240.22336012762585 194.97155179806026 239.68163354218117 195.06548245436912 239.15562186685162 C 195.15941311067795 238.62961019152206 195.45992288978658 238.16305674030426 195.9 237.85999999999999 C 198.20000000000002 236.26 200.9 233.85999999999999 200.9 230.95999999999998 C 200.9 229.8554305003384 201.79543050033843 228.95999999999998 202.9 228.95999999999998 C 204.00456949966159 228.95999999999998 204.9 229.8554305003384 204.9 230.95999999999998 C 204.9 233.55999999999997 203.70000000000002 237.35999999999999 198.1 241.15999999999997 C 197.85251943700982 241.4493772406781 197.47878057366745 241.59887278601508 197.1 241.56 Z" stroke-linecap="round" />
</g>
		<g transform="matrix(1 0 0 1 -52.7 15.69)"  >
<path style="stroke: none; stroke-width: 1; stroke-dasharray: none; stroke-linecap: butt; stroke-dashoffset: 0; stroke-linejoin: miter; stroke-miterlimit: 4; fill: rgb(77,77,77); fill-rule: nonzero; opacity: 1;" vector-effect="non-scaling-stroke"  transform=" translate(-153, -247.11)" d="M 153 258.16 C 145.39356095987088 258.16146096846194 137.80035980904557 257.5259066871153 130.3 256.26000000000005 C 129.5202518718837 256.2286106992756 128.8299749790693 255.7465533456336 128.53199215227258 255.02530535330703 C 128.23400932547582 254.30405736098047 128.38274971095268 253.47536092760936 128.9129612554464 252.90276320705289 C 129.44317279994007 252.3301654864964 130.25800776892817 252.118256415742 131 252.36000000000004 C 138.26537063676176 253.6223413754807 145.62578056400775 254.25801314192464 152.99999999999997 254.26000000000002 C 181.3 254.26000000000005 201 245.76000000000005 201 238.16000000000005 C 201 237.05543050033847 201.89543050033842 236.16000000000005 203 236.16000000000005 C 204.10456949966158 236.16000000000005 205 237.05543050033847 205 238.16000000000005 C 205.1 250.66 178.6 258.16 153 258.16 Z M 109.6 249.06000000000003 C 109.21384336347748 249.0547741855754 108.83534190032728 248.95154651380716 108.5 248.76000000000002 C 102.3 244.86 101 240.76000000000002 101 238.06000000000003 C 101 236.95543050033845 101.8954305003384 236.06000000000003 103 236.06000000000003 C 104.1045694996616 236.06000000000003 105 236.95543050033845 105 238.06000000000003 C 105 241.16000000000003 108.1 243.76000000000002 110.7 245.36000000000004 C 111.62675181887732 245.97582666165 111.89303975878762 247.21850371456475 111.3 248.16000000000005 C 110.91325999553943 248.71843557421403 110.27925190983048 249.054086913707 109.6 249.06 Z" stroke-linecap="round" />
</g>
		<g transform="matrix(1 0 0 1 -52.65 23.84)"  >
<path style="stroke: none; stroke-width: 1; stroke-dasharray: none; stroke-linecap: butt; stroke-dashoffset: 0; stroke-linejoin: miter; stroke-miterlimit: 4; fill: rgb(77,77,77); fill-rule: nonzero; opacity: 1;" vector-effect="non-scaling-stroke"  transform=" translate(-153.05, -255.26)" d="M 153 266.36 C 127.4 266.36 101 258.86 101 246.16000000000003 C 101 245.05543050033845 101.8954305003384 244.16000000000003 103 244.16000000000003 C 104.1045694996616 244.16000000000003 105 245.05543050033845 105 246.16000000000003 C 105 253.76000000000002 124.7 262.36 153 262.36 C 154.10456949966158 262.36 155 263.25543050033843 155 264.36 C 155 265.4645694996616 154.10456949966158 266.36 153 266.36 Z M 177.2 264.16 C 176.25131941059928 264.1318172867382 175.43574228866044 263.4793555891871 175.2 262.56 C 175.01266531796458 261.46232034562144 175.71470544132922 260.4092601605745 176.79999999999998 260.16 C 191.29999999999998 257.26000000000005 201.1 251.66000000000003 201.1 246.26000000000002 C 201.1 245.15543050033844 201.99543050033841 244.26000000000002 203.1 244.26000000000002 C 204.20456949966157 244.26000000000002 205.1 245.15543050033844 205.1 246.26000000000002 C 205.1 253.96 194.79999999999998 260.66 177.6 264.16 Z" stroke-linecap="round" />
</g>
		<g transform="matrix(1 0 0 1 -52.75 32.77)"  >
<path style="stroke: none; stroke-width: 1; stroke-dasharray: none; stroke-linecap: butt; stroke-dashoffset: 0; stroke-linejoin: miter; stroke-miterlimit: 4; fill: rgb(77,77,77); fill-rule: nonzero; opacity: 1;" vector-effect="non-scaling-stroke"  transform=" translate(-152.95, -264.19)" d="M 152.9 274.56 C 146.98308275364525 274.55481289449756 141.07203027068573 274.18745935035884 135.20000000000002 273.46 C 132.3 273.06 129.50000000000003 272.56 126.90000000000002 272.06 C 126.37097141218446 271.9618012770544 125.90742374180813 271.64612236323705 125.62224971849706 271.1898439259394 C 125.33707569518599 270.73356548864166 125.25644699899826 270.17856221595645 125.40000000000002 269.66 C 125.51904698173118 269.1426541960058 125.83889161389682 268.6938628228832 126.28906520519942 268.4125043283191 C 126.73923879650204 268.13114583375494 127.28280340890959 268.0403064290194 127.80000000000003 268.16 C 130.3 268.66 133.00000000000003 269.16 135.8 269.56 C 141.50452611966418 270.28769429788866 147.24924934230344 270.6550893877087 153 270.6600000000001 C 180.7 270.66 199.4 262.76000000000005 200.9 255.46000000000004 C 201.12091389993233 254.35543050033846 202.19543050033843 253.63908610006771 203.3 253.86000000000004 C 204.4045694996616 254.08091389993237 205.12091389993233 255.15543050033847 204.9 256.26000000000005 C 202.6 266.86 180.7 274.56 152.9 274.56 Z M 110.30000000000001 266.06 C 109.94543570412536 266.05376924790227 109.59944216560054 265.94997118634484 109.30000000000001 265.76 C 104.50000000000001 262.96 101.70000000000002 259.76 101.00000000000001 256.26 C 100.77908610006769 255.1554305003384 101.49543050033841 254.0809138999323 102.60000000000001 253.85999999999999 C 103.70456949966159 253.63908610006766 104.77908610006769 254.3554305003384 105.00000000000001 255.45999999999998 C 105.50000000000001 257.76 107.70000000000002 260.15999999999997 111.40000000000002 262.35999999999996 C 111.86648764659114 262.6105617246317 112.20725088604905 263.044426467424 112.34014048018845 263.55700061624736 C 112.47303007432785 264.0695747650708 112.38598877605551 264.6143517954228 112.10000000000002 265.05999999999995 C 111.69902360319901 265.6669744677886 111.02719226718709 266.0402140989063 110.3 266.06 Z" stroke-linecap="round" />
</g>
		<g transform="matrix(1 0 0 1 -52.8 40.37)"  >
<path style="stroke: none; stroke-width: 1; stroke-dasharray: none; stroke-linecap: butt; stroke-dashoffset: 0; stroke-linejoin: miter; stroke-miterlimit: 4; fill: rgb(77,77,77); fill-rule: nonzero; opacity: 1;" vector-effect="non-scaling-stroke"  transform=" translate(-152.9, -271.79)" d="M 152.9 282.26 C 125.5 282.26 103.2 274.36 101 263.86 C 100.77908610006767 262.75543050033843 101.4954305003384 261.6809138999323 102.6 261.46000000000004 C 103.70456949966157 261.2390861000677 104.77908610006767 261.9554305003384 105 263.06 C 106.5 270.36 125.3 278.26 152.9 278.26 C 160.03925119441658 278.2908587812022 167.1671734200373 277.68849915650185 174.20000000000002 276.46 C 175.19793834372655 276.419827301091 176.07254600942863 277.1220157928842 176.248988642601 278.1050533205588 C 176.42543127577335 279.0880908482333 175.84961753857948 280.05061138670015 174.9 280.35999999999996 C 167.6411385746212 281.6718293370529 160.2762912424178 282.307884333925 152.9 282.26 Z M 193.8 274.46 C 193.04661204115436 274.4410959395254 192.36050283953617 274.02180698298093 192 273.35999999999996 C 191.75786056875458 272.8831948650946 191.71675471900366 272.32927773131 191.88586256649631 271.8219541888321 C 192.05497041398897 271.3146306463541 192.42020537406043 270.896160449177 192.9 270.65999999999997 C 197.5 268.35999999999996 200.3 265.55999999999995 200.8 262.96 C 201.02091389993234 261.8554305003384 202.09543050033844 261.1390861000677 203.20000000000002 261.36 C 204.3045694996616 261.5809138999323 205.02091389993234 262.6554305003384 204.8 263.76 C 204 267.65999999999997 200.60000000000002 271.26 194.8 274.15999999999997 C 194.52917449607682 274.4060592708581 194.16154749640825 274.5163473707587 193.8 274.46 Z" stroke-linecap="round" />
</g>
		<g transform="matrix(1 0 0 1 -52.75 48.22)"  >
<path style="stroke: none; stroke-width: 1; stroke-dasharray: none; stroke-linecap: butt; stroke-dashoffset: 0; stroke-linejoin: miter; stroke-miterlimit: 4; fill: rgb(77,77,77); fill-rule: nonzero; opacity: 1;" vector-effect="non-scaling-stroke"  transform=" translate(-152.95, -279.64)" d="M 152.9 290.06 C 151.79543050033843 290.06 150.9 289.1645694996616 150.9 288.06 C 150.9 286.9554305003384 151.79543050033843 286.06 152.9 286.06 C 180.6 286.06 199.3 278.16 200.8 270.86 C 201.02091389993234 269.75543050033843 202.09543050033844 269.0390861000677 203.20000000000002 269.26000000000005 C 204.3045694996616 269.4809138999323 205.02091389993234 270.55543050033845 204.8 271.66 C 202.6 282.26 180.7 290.06 152.9 290.06 Z M 137.70000000000002 289.16 L 137.50000000000003 289.16 C 116.80000000000003 286.76000000000005 102.80000000000003 280.06 101.10000000000002 271.66 C 100.8790861000677 270.55543050033845 101.59543050033842 269.4809138999323 102.70000000000002 269.26000000000005 C 103.8045694996616 269.0390861000677 104.8790861000677 269.75543050033843 105.10000000000002 270.86 C 106.40000000000002 277.26 120.00000000000003 283.16 138.00000000000003 285.26 C 138.53150846895934 285.3104680034766 139.02077504439657 285.5713538506952 139.3588601443226 285.984568972827 C 139.6969452442486 286.3977840949588 139.855780564703 286.9290227871633 139.80000000000004 287.46 C 139.56203275878622 288.43449202618325 138.70268264021828 289.1301564078811 137.7 289.16 Z" stroke-linecap="round" />
</g>
		<g transform="matrix(1 0 0 1 -52.75 55.97)"  >
<path style="stroke: none; stroke-width: 1; stroke-dasharray: none; stroke-linecap: butt; stroke-dashoffset: 0; stroke-linejoin: miter; stroke-miterlimit: 4; fill: rgb(77,77,77); fill-rule: nonzero; opacity: 1;" vector-effect="non-scaling-stroke"  transform=" translate(-152.95, -287.39)" d="M 152.9 297.86 C 125 297.86 103.2 290.16 101 279.46000000000004 C 100.77908610006767 278.35543050033846 101.4954305003384 277.28091389993233 102.6 277.06000000000006 C 103.70456949966157 276.83908610006773 104.77908610006767 277.55543050033845 105 278.66 C 106.5 285.96000000000004 125.3 293.86 152.9 293.86 C 154.00456949966159 293.86 154.9 294.75543050033843 154.9 295.86 C 154.9 296.9645694996616 154.00456949966159 297.86 152.9 297.86 Z M 179.6 295.06 C 178.66050827322366 295.0633530294236 177.85657696826902 294.3863582463038 177.7 293.46 C 177.58030642901932 292.9428034089095 177.6711458337549 292.399238796502 177.95250432831904 291.9490652051994 C 178.23386282288317 291.4988916138968 178.6826541960058 291.1790469817312 179.2 291.06 C 191.6 288.26 199.89999999999998 283.46 200.89999999999998 278.56 C 201.1209138999323 277.4554305003384 202.1954305003384 276.7390861000677 203.29999999999998 276.96000000000004 C 204.40456949966156 277.1809138999323 205.1209138999323 278.25543050033843 204.89999999999998 279.36 C 203.49999999999997 285.96000000000004 194.49999999999997 291.66 180.2 294.86 C 180.02690382915372 294.98982212813473 179.81637021355783 295.06 179.6 295.06 Z" stroke-linecap="round" />
</g>
		<g transform="matrix(1 0 0 1 -52.8 64.17)"  >
<path style="stroke: none; stroke-width: 1; stroke-dasharray: none; stroke-linecap: butt; stroke-dashoffset: 0; stroke-linejoin: miter; stroke-miterlimit: 4; fill: rgb(77,77,77); fill-rule: nonzero; opacity: 1;" vector-effect="non-scaling-stroke"  transform=" translate(-152.9, -295.59)" d="M 152.9 306.06 C 147.753209412035 306.07100381713946 142.6104716126168 305.7704542054852 137.5 305.16 C 136.39543050033842 305.0495430500339 135.58954305003385 304.0645694996616 135.7 302.96000000000004 C 135.81045694996615 301.85543050033846 136.79543050033843 301.0495430500339 137.9 301.16 C 142.8788996987654 301.7335877989238 147.88833520834444 302.00075769276793 152.90000000000003 301.96000000000004 C 180.6 301.96000000000004 199.3 294.06000000000006 200.8 286.76000000000005 C 201.02091389993234 285.65543050033847 202.09543050033844 284.93908610006775 203.20000000000002 285.1600000000001 C 204.3045694996616 285.38091389993235 205.02091389993234 286.4554305003385 204.8 287.56000000000006 C 202.6 298.26 180.7 306.06 152.9 306.06 Z M 124.9 302.96 C 124.72717817422335 302.97556399359144 124.55354168779712 302.9408366963062 124.4 302.85999999999996 C 117.10000000000001 301.05999999999995 111.10000000000001 298.55999999999995 107 295.65999999999997 C 103.6 293.26 101.6 290.46 101 287.55999999999995 C 100.77908610006767 286.45543050033837 101.4954305003384 285.38091389993224 102.6 285.15999999999997 C 103.70456949966157 284.93908610006764 104.77908610006767 285.65543050033835 105 286.75999999999993 C 105.4 288.6599999999999 106.9 290.55999999999995 109.4 292.35999999999996 C 113 294.96 118.60000000000001 297.25999999999993 125.4 298.85999999999996 C 126.39142096492661 299.1403653968193 127.03062179783447 300.1014099613458 126.90589934597634 301.1241340665824 C 126.78117689411822 302.14685817181913 125.92974380458053 302.92611811165716 124.9 302.96 Z" stroke-linecap="round" />
</g>
		<g transform="matrix(1 0 0 1 -52.8 72.42)"  >
<path style="stroke: none; stroke-width: 1; stroke-dasharray: none; stroke-linecap: butt; stroke-dashoffset: 0; stroke-linejoin: miter; stroke-miterlimit: 4; fill: rgb(77,77,77); fill-rule: nonzero; opacity: 1;" vector-effect="non-scaling-stroke"  transform=" translate(-152.9, -303.84)" d="M 152.9 314.26 C 125 314.26 103.2 306.56 101 295.86 C 100.77908610006767 294.75543050033843 101.4954305003384 293.6809138999323 102.6 293.46000000000004 C 103.70456949966157 293.2390861000677 104.77908610006767 293.9554305003384 105 295.06 C 106.5 302.36 125.3 310.26 152.9 310.26 C 180.5 310.26 199.3 302.36 200.8 295.06 C 201.02091389993234 293.9554305003384 202.09543050033844 293.2390861000677 203.20000000000002 293.46000000000004 C 204.3045694996616 293.6809138999323 205.02091389993234 294.75543050033843 204.8 295.86 C 202.6 306.46 180.7 314.26 152.9 314.26 Z" stroke-linecap="round" />
</g>
		<g transform="matrix(1 0 0 1 -52.7 -9.21)"  >
<path style="stroke: none; stroke-width: 1; stroke-dasharray: none; stroke-linecap: butt; stroke-dashoffset: 0; stroke-linejoin: miter; stroke-miterlimit: 4; fill: rgb(77,77,77); fill-rule: nonzero; opacity: 1;" vector-effect="non-scaling-stroke"  transform=" translate(-153, -222.21)" d="M 153 242.36 C 144.29943599602058 242.40277429069246 135.61845371750826 241.53132433223175 127.09999999999998 239.76000000000002 C 126.02304473782995 239.51147186257617 125.35147186257613 238.43695526217007 125.6 237.36 C 125.84852813742386 236.28304473782995 126.92304473782995 235.61147186257617 128 235.86 C 136.2255388591473 237.54853076288336 144.6029805711559 238.3862749340842 152.99999999999994 238.36 C 181.3 238.36 201 229.86 201 222.16000000000003 C 201 217.56000000000003 194.1 212.86 182.9 209.66000000000003 C 181.82304473782995 209.35624338759308 181.19624338759306 208.23695526217008 181.5 207.16000000000003 C 181.80375661240694 206.08304473782997 182.92304473782994 205.45624338759308 184 205.76000000000002 C 197.3 209.46 205 215.46 205 222.06000000000003 C 205.1 234.86 178.6 242.36 153 242.36 Z M 112.9 235.06 C 112.59130185708011 235.0414134648357 112.28751614436173 234.97390552867606 112 234.86 C 102.9 230.46 101 225.56 101 222.26000000000002 C 101 210.76000000000002 123.4 202.06000000000003 153 202.06000000000003 C 154.10456949966158 202.06000000000003 155 202.95543050033845 155 204.06000000000003 C 155 205.1645694996616 154.10456949966158 206.06000000000003 153 206.06000000000003 C 124.7 206.06000000000003 105 214.56000000000003 105 222.26000000000002 C 105 225.36 108.1 228.56000000000003 113.8 231.26000000000002 C 114.27979462593957 231.49616044917707 114.64502958601102 231.91463064635414 114.81413743350369 232.4219541888321 C 114.98324528099634 232.9292777313101 114.94213943124544 233.48319486509462 114.7 233.96 C 114.33949716046384 234.62180698298098 113.65338795884564 235.04109593952543 112.9 235.06 Z" stroke-linecap="round" />
</g>
		<g transform="matrix(1 0 0 1 74.5 -34.01)"  >
<path style="stroke: none; stroke-width: 1; stroke-dasharray: none; stroke-linecap: butt; stroke-dashoffset: 0; stroke-linejoin: miter; stroke-miterlimit: 4; fill: rgb(144,171,109); fill-rule: nonzero; opacity: 1;" vector-effect="non-scaling-stroke"  transform=" translate(-280.2, -197.41)" d="M 205.6 32.06 C 315.1 32.160000000000004 403.9 120.96000000000001 403.9 230.46 C 403.9465496771621 289.824815821036 377.3767942354511 346.0837040698524 331.50000000000006 383.76 L 295.5 339.96 C 339.8273359705825 303.4903713102418 357.7864853591261 243.88867639172415 340.98707142846314 189.0003695987106 C 324.18765749780016 134.11206280569704 275.945908793809 94.77217508469496 218.8 89.35999999999996 L 205.7 89.35999999999999 L 205.7 109.85999999999999 L 156.5 60.45999999999999 L 205.7 11.059999999999988 L 205.7 32.05999999999999 Z" stroke-linecap="round" />
</g>
		<g transform="matrix(1 0 0 1 -73.75 33.09)"  >
<path style="stroke: none; stroke-width: 1; stroke-dasharray: none; stroke-linecap: butt; stroke-dashoffset: 0; stroke-linejoin: miter; stroke-miterlimit: 4; fill: rgb(167,79,81); fill-rule: nonzero; opacity: 1;" vector-effect="non-scaling-stroke"  transform=" translate(-131.95, -264.51)" d="M 206.5 429.86 C 97 429.76 8.2 341 8.2 231.46 C 8.15345032283786 172.09518417896402 34.72320576454891 115.83629593014759 80.59999999999997 78.16 L 116.6 121.96 C 72.27266402941748 158.4296286897582 54.313514640873876 218.03132360827595 71.11292857153688 272.9196304012895 C 87.91234250219989 327.80793719430307 136.15409120619105 367.147824915305 193.30000000000007 372.56 L 206.5 372.56 L 206.5 352.06 L 255.7 401.46 L 206.5 450.85999999999996 Z" stroke-linecap="round" />
</g>
		<g transform="matrix(1 0 0 1 72.9 -33.5)"  >
<path style="stroke: none; stroke-width: 1; stroke-dasharray: none; stroke-linecap: butt; stroke-dashoffset: 0; stroke-linejoin: miter; stroke-miterlimit: 4; fill: rgb(77,77,77); fill-rule: nonzero; opacity: 1;" vector-effect="non-scaling-stroke"  transform=" translate(-278.6, -197.92)" d="M 332.4 395.86 C 331.81600439202646 395.88404344426243 331.2566938091541 395.62303183892203 330.9 395.16 L 294.7 354 C 294.1257469346879 353.48201968013336 293.90158298312605 352.6793893073731 294.1243385673842 351.9388151082065 C 294.3470941516424 351.1982409090399 294.9768443706436 350.6524573859055 295.74156074220053 350.537222556699 C 296.5062771137575 350.4219877274925 297.2688980886027 350.75795534674046 297.7 351.4 L 332.59999999999997 391.2 C 383.59999999999997 348.59999999999997 407.4 295.1 407.4 223.29999999999998 C 407.56521134516566 186.12432278703204 396.25003518706296 149.80400425485044 375 119.29999999999993 C 374.36487253769457 118.38873016277917 374.5887301627792 117.13512746230539 375.5 116.49999999999999 C 376.4112698372208 115.86487253769457 377.6648725376946 116.08873016277917 378.3 116.99999999999999 C 399.84648982711485 148.2623297033677 411.3892875567905 185.33179794096645 411.4000000000001 223.2999999999999 C 411.40000000000003 297.2 386.70000000000005 351.9 333.6 395.6 C 333.214814728678 395.7447060299938 332.81053650111335 395.8322996459661 332.4 395.86 Z M 302.09999999999997 326.06 C 301.5724614661981 326.05248590428704 301.06926092020717 325.8368285274338 300.7 325.46 C 300.31596942425546 325.09558367906084 300.09849538952903 324.5894135794192 300.09849538952903 324.05999999999995 C 300.09849538952903 323.53058642058073 300.31596942425546 323.0244163209391 300.7 322.65999999999997 C 328.3 295.76 339.09999999999997 269.46 339.09999999999997 228.95999999999998 C 339.09999999999997 181.15999999999997 313.9 149.15999999999997 292.79999999999995 130.76 C 266.59999999999997 107.85999999999999 237.39999999999995 97.46 221.29999999999995 97.46 C 220.19543050033838 97.46 219.29999999999995 96.56456949966159 219.29999999999995 95.46 C 219.29999999999995 94.3554305003384 220.19543050033838 93.46 221.29999999999995 93.46 C 238.09999999999997 93.46 268.4 104.16 295.4 127.75999999999999 C 317.2 146.76 343.09999999999997 179.76 343.09999999999997 229.06 C 343.09999999999997 270.86 331.99999999999994 297.86 303.49999999999994 325.65999999999997 C 303.06945756345874 325.897175197193 302.59085500312756 326.03391878585904 302.1 326.06 Z M 209.49999999999997 121.75999999999999 C 208.97246146619813 121.75248590428706 208.46926092020718 121.53682852743378 208.09999999999997 121.16 L 146.39999999999998 62.26 C 146.0231714725662 61.890739079792795 145.80751409571292 61.38753853380185 145.79999999999998 60.86 C 145.78571649360921 60.32805936322688 146.00495091379133 59.81651238280195 146.39999999999998 59.46 L 208.1 0.56 C 208.6766077148028 -0.0052159239782169076 209.53652411852872 -0.16827636647392552 210.28002123448226 0.14661652969463712 C 211.0235183504358 0.4615094258631998 211.50474290736776 1.1925825105198786 211.5 1.9999999999999973 L 211.5 25.1 C 256.3 25.700000000000003 305.1 44.900000000000006 342.4 76.9 C 343.0763816649861 77.64986293791848 343.0876511186636 78.78630779924217 342.42627289987695 79.54943651322674 C 341.7648946810903 80.31256522721131 340.6383855812878 80.46293534218567 339.79999999999995 79.9 C 302.7 48 254 29 209.5 29 C 208.39543050033842 29 207.5 28.104569499661586 207.5 27 L 207.5 6.56 L 150.7 60.760000000000005 L 207.5 115 L 207.5 95.26 C 207.5 94.15543050033841 208.39543050033842 93.26 209.5 93.26 C 210.60456949966158 93.26 211.5 94.15543050033841 211.5 95.26 L 211.5 119.66 C 211.48701616856323 120.44322673200828 211.01798474053197 121.14677387405516 210.3 121.46 C 210.07358541191684 121.64526373794632 209.7924035858356 121.75070692272679 209.5 121.76 Z" stroke-linecap="round" />
</g>
		<g transform="matrix(1 0 0 1 -72.85 33.5)"  >
<path style="stroke: none; stroke-width: 1; stroke-dasharray: none; stroke-linecap: butt; stroke-dashoffset: 0; stroke-linejoin: miter; stroke-miterlimit: 4; fill: rgb(77,77,77); fill-rule: nonzero; opacity: 1;" vector-effect="non-scaling-stroke"  transform=" translate(-132.85, -264.92)" d="M 202 462.86 C 201.7236295698337 462.8410071661071 201.45279406609635 462.77329829017276 201.2 462.66 C 200.48201525946803 462.3467738740552 200.01298383143677 461.6432267320083 200 460.86 L 200 437.76 C 155.2 437.15999999999997 106.4 417.96 69.1 385.96 C 68.42361833501393 385.2101370620815 68.41234888133644 384.0736922007579 69.07372710012305 383.3105634867733 C 69.73510531890966 382.54743477278873 70.86161441871211 382.3970646578144 71.69999999999999 382.96 C 108.79999999999998 414.85999999999996 157.5 433.85999999999996 202 433.85999999999996 C 203.10456949966158 433.85999999999996 204 434.7554305003384 204 435.85999999999996 L 204 456.25999999999993 L 260.8 402.05999999999995 L 204 347.86 L 204 367.56 C 204 368.6645694996616 203.10456949966158 369.56 202 369.56 C 200.89543050033842 369.56 200 368.6645694996616 200 367.56 L 200 343.16 C 200.01298383143677 342.3767732679917 200.48201525946803 341.67322612594484 201.2 341.36 C 201.9463370032385 341.0326450845575 202.81665749520448 341.1908851740058 203.39999999999998 341.76 L 265.09999999999997 400.65999999999997 C 265.4768285274338 401.02926092020715 265.692485904287 401.5324614661981 265.7 402.05999999999995 C 265.71428350639076 402.5919406367731 265.4950490862086 403.10348761719797 265.09999999999997 403.4599999999999 L 203.39999999999998 462.3599999999999 C 202.99835123520424 462.6712551745197 202.50795322720745 462.8463973202329 202 462.86 Z M 190.3 369.46000000000004 C 173.5 369.46000000000004 143.20000000000002 358.76000000000005 116.20000000000002 335.16 C 94.40000000000002 316.16 68.50000000000001 283.16 68.50000000000001 233.86 C 68.50000000000001 192.06 79.60000000000001 165.06 108.10000000000002 137.26000000000002 C 108.89624060256543 136.66281954807596 110.01042965046055 136.74200252571433 110.71421356237313 137.4457864376269 C 111.41799747428571 138.1495703495395 111.4971804519241 139.26375939743463 110.90000000000002 140.06000000000003 C 83.30000000000001 166.96000000000004 72.50000000000003 193.26000000000005 72.50000000000003 233.76000000000005 C 72.50000000000003 281.56000000000006 97.70000000000003 313.56000000000006 118.80000000000003 331.96000000000004 C 145.00000000000003 354.86 174.20000000000002 365.26000000000005 190.3 365.26000000000005 C 191.4045694996616 365.26000000000005 192.3 366.15543050033847 192.3 367.26000000000005 C 192.3095246717083 368.40286108394093 191.4385948261216 369.36088391408623 190.3 369.46 Z M 34.8 346.86 C 34.12074809016951 346.854086913707 33.48674000446055 346.51843557421404 33.099999999999994 345.96000000000004 C 11.553510172885158 314.6976702966323 0.010712443209534683 277.6282020590334 2.842170943040401e-14 239.65999999999997 C 0 196.95999999999998 8.2 161.06 24.9 130.06 C 25.198264268867916 129.3616839037961 25.86626241587141 128.89250972998454 26.624354637138538 128.84888487061426 C 27.382446858405665 128.80526001124397 28.099855043747194 129.19471016900079 28.47625518007274 129.8542023082071 C 28.852655316398284 130.5136944474134 28.823114804318624 131.32945990875504 28.4 131.96 C 11.899999999999999 162.36 3.8999999999999986 197.66000000000003 3.8999999999999986 239.66000000000003 C 3.7347886548343228 276.8356772129679 15.049964812937024 313.15599574514954 36.299999999999976 343.66 C 36.607988429377976 344.09663987237417 36.72844820193975 344.63836645781885 36.6345175456309 345.16437813314843 C 36.54058688932205 345.69038980847796 36.240077110213406 346.15694325969577 35.8 346.46000000000004 C 35.55251943700982 346.74937724067814 35.17878057366745 346.8988727860151 34.8 346.86 Z M 115.3 112.26000000000002 C 114.71600439202645 112.28404344426242 114.15669380915416 112.02303183892201 113.8 111.56000000000002 L 78.9 71.76 C 70.70176221769286 78.5876035234446 62.98349943960756 85.9717423717427 55.80000000000004 93.86000000000003 C 55.025752944364164 94.49090116536317 53.90475371672651 94.45391497134989 53.17377709358387 93.77335052911363 C 52.442800470441234 93.09278608687738 52.32593913711625 91.97728141378752 52.900000000000006 91.16000000000001 C 60.670867885866535 82.68707485786439 69.02456501758243 74.76776997699771 77.89999999999984 67.46000000000014 C 78.73121610549924 66.75045945307728 79.97807103929688 66.83952051977711 80.7 67.66000000000001 L 116.9 108.86000000000001 C 117.60954054692273 109.69121610549927 117.5204794802229 110.93807103929689 116.7 111.66000000000001 C 116.32167068343145 112.02336187388755 115.82404088562102 112.23663178723488 115.3 112.26 Z" stroke-linecap="round" />
</g>
		<g transform="matrix(1 0 0 1 -73.75 33.09)"  >
<path style="stroke: none; stroke-width: 1; stroke-dasharray: none; stroke-linecap: butt; stroke-dashoffset: 0; stroke-linejoin: miter; stroke-miterlimit: 4; fill: rgb(167,79,81); fill-rule: nonzero; opacity: 1;" vector-effect="non-scaling-stroke"  transform=" translate(-131.95, -264.51)" d="M 206.5 429.86 C 97 429.76 8.2 341 8.2 231.46 C 8.15345032283786 172.09518417896402 34.72320576454891 115.83629593014759 80.59999999999997 78.16 L 116.6 121.96 C 72.27266402941748 158.4296286897582 54.313514640873876 218.03132360827595 71.11292857153688 272.9196304012895 C 87.91234250219989 327.80793719430307 136.15409120619105 367.147824915305 193.30000000000007 372.56 L 206.5 372.56 L 206.5 352.06 L 255.7 401.46 L 206.5 450.85999999999996 Z" stroke-linecap="round" />
</g>
</g>
</g>
</svg>