<?xml version="1.0" encoding="UTF-8" standalone="no"?>
<!-- Created with Inkscape (http://www.inkscape.org/) -->

<svg
   xmlns:dc="http://purl.org/dc/elements/1.1/"
   xmlns:cc="http://creativecommons.org/ns#"
   xmlns:rdf="http://www.w3.org/1999/02/22-rdf-syntax-ns#"
   xmlns:svg="http://www.w3.org/2000/svg"
   xmlns="http://www.w3.org/2000/svg"
   xmlns:sodipodi="http://sodipodi.sourceforge.net/DTD/sodipodi-0.dtd"
   xmlns:inkscape="http://www.inkscape.org/namespaces/inkscape"
   id="svg4649"
   version="1.1"
   inkscape:version="0.91 r13725"
   width="585"
   height="496.875"
   viewBox="0 0 585 496.875"
   sodipodi:docname="Moneybag3.svg">
  <metadata
     id="metadata4655">
    <rdf:RDF>
      <cc:Work
         rdf:about="">
        <dc:format>image/svg+xml</dc:format>
        <dc:type
           rdf:resource="http://purl.org/dc/dcmitype/StillImage" />
        <dc:title></dc:title>
      </cc:Work>
    </rdf:RDF>
  </metadata>
  <defs
     id="defs4653" />
  <sodipodi:namedview
     pagecolor="#ffffff"
     bordercolor="#666666"
     borderopacity="1"
     objecttolerance="10"
     gridtolerance="10"
     guidetolerance="10"
     inkscape:pageopacity="0"
     inkscape:pageshadow="2"
     inkscape:window-width="1600"
     inkscape:window-height="837"
     id="namedview4651"
     showgrid="false"
     inkscape:zoom="1.3644262"
     inkscape:cx="292.54207"
     inkscape:cy="248.54619"
     inkscape:window-x="-8"
     inkscape:window-y="-8"
     inkscape:window-maximized="1"
     inkscape:current-layer="svg4649" />
  <path
     style="fill:#000000"
     d="M 548.31641 2.8125 C 544.66157 2.9419223 539.83249 4.7298247 533.51953 7.9199219 C 531.15371 9.1154332 526.47656 10.838834 523.125 11.748047 C 517.02541 13.402749 508.42661 17.151638 498.75 22.376953 C 494.2949 24.782683 483.6538 29.330769 477.65625 31.392578 C 476.625 31.747097 474.41875 32.215014 472.75391 32.431641 C 471.08906 32.648269 464.33906 35.513062 457.75391 38.798828 C 451.16875 42.084594 442.19531 45.87862 437.8125 47.228516 C 433.42969 48.578411 425.20312 52.266973 419.53125 55.425781 C 405.03458 63.49933 402.8533 64.542364 396.14844 66.613281 C 382.6219 70.791206 369.88981 78.795383 368.09375 84.25 C 366.61815 88.731353 366.07199 89.291579 361.375 91.132812 C 358.81428 92.136624 356.08594 93.505729 355.3125 94.175781 C 353.72722 95.549163 350.99269 96.495107 338.90625 99.851562 C 334.0742 101.19344 329.98093 102.89464 329.32812 103.83203 C 326.40547 108.02874 326.22082 108.08999 318.35938 107.48828 C 290.1201 105.32687 275.25535 98.965318 277.91602 90.177734 C 281.13354 79.550981 272.03317 66.985156 264.49414 71.644531 C 263.97736 71.963919 260.95631 71.326032 257.7793 70.226562 C 250.9128 67.850263 247.22051 68.209072 238.6875 72.078125 C 235.4636 73.539911 230.53667 75.283303 227.74023 75.953125 C 224.94379 76.622947 221.19865 77.778615 219.41797 78.521484 C 217.02945 79.517926 214.38465 79.703939 209.33203 79.230469 C 202.15656 78.558073 193.3513 80.531597 181.40625 85.490234 C 171.06138 89.784602 166.80096 90.771466 153.75 91.890625 C 140.67703 93.011671 139.90484 92.978317 133.59375 91.017578 C 125.71061 88.568431 122.54224 88.927698 113.6875 93.275391 C 110.19795 94.98876 105.02344 97.128022 102.1875 98.029297 C 91.64826 101.37868 86.219275 107.34837 84.767578 117.1875 C 84.060761 121.97808 82.624791 123.9586 77.490234 127.2207 C 74.046951 129.40829 69.03909 134.42055 68.3125 136.40625 C 68.098542 136.99098 71.525983 137.35219 77.421875 137.36719 C 84.76239 137.38591 87.426005 137.75252 89.341797 139.00781 C 92.792249 141.26863 94.022398 141.04863 96.478516 137.72656 C 99.49661 133.64437 109.6875 130.00504 109.6875 133.00977 C 109.6875 136.86539 102.13093 146.25782 96.859375 148.95312 C 92.865062 150.99538 89.471036 150.24268 86.783203 146.71875 C 83.835209 142.85373 82.150843 142.67335 74.443359 145.39062 C 71.397794 146.46434 66.2823 147.68606 63.074219 148.10742 C 50.61694 149.74361 31.698347 163.99344 20.943359 179.8418 C 16.857254 185.86301 19.97957 195.84858 27.953125 202.25586 C 30.366453 204.19514 32.883124 206.29174 33.544922 206.91602 C 34.206721 207.54029 36.315404 208.29528 38.232422 208.59375 C 53.722602 211.00549 56.643042 212.55534 55.835938 217.9375 L 55.261719 221.76367 L 59.466797 223.00586 C 61.780134 223.68892 64.189211 224.86848 64.820312 225.62891 C 65.451414 226.38934 67.598588 227.84447 69.591797 228.86133 C 71.585007 229.87819 73.452377 231.32408 73.740234 232.07422 C 75.434097 236.48835 79.446225 233.40055 82.933594 225 C 88.929542 210.55666 88.692903 210 76.539062 210 C 68.217142 210 57.1875 208.36547 57.1875 207.13281 C 57.1875 205.51498 64.475458 205.05443 78.695312 205.77344 C 96.87983 206.69292 97.739805 206.65914 101.20508 204.86719 C 103.25305 203.80814 104.49175 203.66703 105.68945 204.35742 C 106.59956 204.88205 108.50391 205.72347 109.92188 206.22656 C 113.37912 207.45317 113.16955 208.87913 109.29492 210.49805 C 106.20326 211.78983 106.06981 212.05962 105.47461 218.18359 C 104.52464 227.95784 102.46503 233.60942 99.984375 233.25586 C 97.703597 232.93078 97.388819 229.16251 98.810547 219.22656 C 99.526778 214.22113 99.439624 213.83517 97.255859 212.4043 C 94.229224 210.42118 89.41758 211.88511 90.476562 214.4668 C 92.404051 219.16581 92.098106 224.05517 89.550781 229.26172 L 86.988281 234.5 L 89.666016 240.29688 C 93.31766 248.20099 93.839406 279.07724 90.400391 283.75977 C 85.520161 290.40465 71.860931 294.71116 62.390625 292.5918 C 58.325649 291.6821 57.06409 291.74008 54.775391 292.93359 C 53.266448 293.72047 51.322311 294.36614 50.455078 294.36914 C 48.83958 294.37506 46.750137 297.01591 43.777344 302.8125 C 41.446827 307.35673 40.397693 308.57623 36.09375 311.73633 C 9.1419716 331.52533 -0.051027605 352.27114 3.6972656 384.84375 C 6.2067763 406.65136 6.4311026 407.5983 11.337891 417.04492 C 18.683001 431.18585 20.357592 433.66251 26.166016 438.95508 C 29.155086 441.67869 32.128445 444.90702 32.771484 446.13086 C 38.181208 456.4267 57.836768 471.4974 67.804688 472.99219 C 70.231796 473.35615 73.776159 474.4504 75.681641 475.42188 C 77.587122 476.39334 80.727977 477.1875 82.662109 477.1875 C 84.596242 477.1875 88.479179 478.0483 91.289062 479.09961 C 95.999206 480.8619 101.7801 482.67255 113.90625 486.18359 C 116.48438 486.93007 122.39063 487.96037 127.03125 488.47461 C 131.67187 488.98884 141.58594 490.08345 149.0625 490.90625 C 156.53906 491.72905 165.1875 492.71191 168.28125 493.08984 C 183.42673 494.93996 202.70325 493.49755 236.3457 488 C 237.68764 487.78072 243.17202 485.9568 248.5332 483.94531 C 253.89439 481.93382 265.02168 478.05474 273.25977 475.32617 C 287.3748 470.65106 302.69569 463.54868 312.00195 457.36523 C 314.22 455.89147 317.26817 454.04604 318.77734 453.26562 C 322.66717 451.25411 332.93619 441.92845 335.12109 438.42188 C 336.13297 436.7979 339.74799 432.09375 343.1543 427.96875 C 348.83568 421.08867 350.80683 417.90517 355.87891 407.42188 C 356.85615 405.40206 358.3782 402.44894 359.25977 400.85938 C 363.23968 393.6832 369.51895 372.59163 370.86719 361.875 C 371.22399 359.03906 371.92271 355.66406 372.41992 354.375 C 374.36593 349.3298 375.01166 338.19534 373.64258 333.29688 C 372.91959 330.71009 371.23975 324.70346 369.9082 319.94922 C 367.42645 311.08824 360.52191 296.67945 356.75586 292.5 C 355.5943 291.21094 352.42876 287.20312 349.7207 283.59375 C 335.60727 264.78296 314.13133 249.7305 298.125 247.42969 C 289.53687 246.19519 282.86449 244.33053 280.09766 242.39258 C 278.95527 241.59241 277.11652 240.9375 276.01172 240.9375 C 268.4925 240.9375 267.22303 234.13235 274.45312 232.58203 C 295.19697 228.134 320.82796 219.19972 328.125 213.875 C 350.0714 197.86051 358.48313 193.15637 366.38086 192.48047 C 373.21232 191.89581 374.26733 192.72368 377.95117 201.5625 C 379.56292 205.42969 381.83604 210.86461 383.00391 213.64062 C 387.49349 224.31233 395.67694 225.64541 413.23828 218.5625 C 420.3769 215.68332 422.06763 215.95727 427.62891 220.89648 L 432.50781 225.23047 L 439.35156 224.60938 C 446.52957 223.95892 450.77565 222.59161 454.6875 219.66992 C 457.71641 217.40771 460.26015 216.20562 468.28125 213.24805 C 490.34972 205.11086 495.11884 203.32475 500.43359 201.20703 C 503.67947 199.91368 509.75151 198.15844 513.92773 197.30664 C 518.10393 196.45486 523.25215 195.13224 525.36914 194.36523 C 532.03767 191.94913 538.66592 190.40572 545.29492 189.72656 C 548.82194 189.3652 553.93752 188.08385 556.66211 186.87891 C 559.3867 185.67397 562.34283 184.6743 563.23047 184.6582 C 564.11811 184.64211 566.53125 183.58869 568.59375 182.31836 C 570.65625 181.04804 572.97657 180.006 573.75 180 C 574.52344 179.99448 576.73828 179.55065 578.67188 179.01367 L 582.1875 178.03711 L 582.16992 170.3457 C 582.15207 162.17893 580.19669 147.34283 578.62305 143.4375 C 578.10363 142.14844 577.17153 138.5625 576.55078 135.46875 C 575.93004 132.375 574.83468 127.97467 574.11719 125.69141 C 572.63575 120.97699 572.42503 108.28063 573.73438 102.61328 C 577.29817 87.187828 574.07633 68.730545 565.34766 54.568359 C 559.78763 45.547247 558.75058 41.509694 558.73828 28.818359 C 558.7203 10.276587 556.35705 2.527771 548.31641 2.8125 z M 245.29883 80.625 C 246.85539 80.625 246.76396 81.483755 244.64648 86.732422 C 243.62588 89.262216 243.76499 89.938218 245.97266 93.191406 C 251.22001 100.9238 247.80737 102.69329 237.71875 97.472656 C 226.29524 91.561254 221.61786 92.238949 217.44922 100.41016 C 214.38283 106.42078 210.7089 104.91763 213.30078 98.712891 C 217.20208 89.373523 226.5026 85.78104 234.08008 90.685547 C 237.86293 93.133979 241.12061 91.91448 241.47266 87.917969 C 241.85963 83.525082 243.38137 80.625 245.29883 80.625 z M 193.14062 86.550781 C 194.33442 86.595126 195.33834 86.93435 195.92773 87.644531 C 198.16456 90.339741 196.26332 93.144215 190.02539 96.351562 C 181.98116 100.48765 180 102.47266 180 106.39844 C 180 114.97979 177.26125 116.09668 164.11523 112.87891 C 145.07676 108.21883 131.25 115.86236 131.25 131.04492 C 131.25 132.50795 130.71264 134.43882 130.05664 135.33594 C 128.81794 137.02997 120.76015 138.1306 116.42969 137.19727 C 111.07972 136.04421 119.50733 129.375 126.31445 129.375 C 129.41016 129.375 129.41435 129.36867 127.88281 127.03125 C 125.43691 123.29834 129.6093 112.10376 134.42969 109.4668 C 136.82227 108.15796 151.41259 106.72266 165.46875 106.41211 L 175.78125 106.18359 L 176.06836 102.31836 C 176.30105 99.19399 176.97026 97.98434 179.54883 96.017578 C 181.30384 94.678969 182.96778 92.881957 183.24805 92.025391 C 184.25947 88.934152 189.55924 86.417748 193.14062 86.550781 z M 371.94336 94.433594 L 375.90625 99.445312 C 382.04841 107.21573 389.47245 122.46788 393.44141 135.46875 C 394.99965 140.57299 404.89412 160.90341 407.82227 165.01562 C 410.13987 168.27041 411.20268 171.07793 413.87109 181.01562 C 416.24508 189.85682 416.17873 190.19627 411.10742 195.26758 C 405.44542 200.92958 407.1686 206.23598 414.96094 207.13086 C 424.96611 208.27984 418.03975 214.13383 401.10547 218.83984 C 392.95364 221.10522 391.88247 220.80736 388.34766 215.29688 C 384.1981 208.82807 375.11775 190.42753 371.16211 180.46875 C 369.11405 175.3125 366.61209 169.61719 365.60156 167.8125 C 357.9193 154.09297 338.28489 111.75637 337.74805 107.75391 C 337.25389 104.06966 339.31115 101.97174 344.66797 100.69727 C 346.13965 100.34714 349.76943 99.058656 352.73438 97.832031 C 355.76855 96.576765 361.14473 95.346275 365.0332 95.017578 L 371.94336 94.433594 z M 271.59766 97.5 C 272.65603 97.5 272.8574 98.052047 272.36719 99.609375 C 272.002 100.76953 271.14178 103.6903 270.45508 106.09961 C 269.76838 108.50892 268.7933 111.25111 268.28906 112.19336 C 267.78483 113.13562 267.06358 116.01563 266.68555 118.59375 C 265.37779 127.51253 256.27793 153.75986 253.48242 156.67773 C 246.16141 164.31923 243.20094 156.27036 248.82617 144.01758 C 256.49352 127.3167 258.95265 121.53035 260.27539 117.07617 C 262.22181 110.52187 269.75357 97.5 271.59766 97.5 z M 212.65234 114.67578 C 213.63907 114.59014 215.04039 117.21992 217.13281 122.88672 C 218.73587 127.22822 221.52031 133.94531 223.32031 137.8125 C 226.90814 145.52075 229.24392 153.92256 228.40625 156.10547 C 226.9722 159.84255 222.45326 157.48052 220.31055 151.875 C 219.62071 150.07031 217.79352 146.0625 216.25195 142.96875 C 211.99131 134.41815 209.89153 122.59569 211.53906 116.44531 C 211.84223 115.31354 212.20383 114.71471 212.65234 114.67578 z M 194.48047 117.36914 C 195.30528 117.21805 195.93661 119.04518 195.94531 123.51562 C 195.95947 130.81354 196.68876 183.23088 196.78516 183.88281 C 196.9287 184.85303 201.57087 185.74835 203.41797 185.16211 C 204.40974 184.84733 205.35705 183.34213 205.69531 181.53906 C 206.38993 177.83642 211.12125 172.94723 213.22852 173.75586 C 214.54984 174.26289 214.54012 174.7035 213.13281 178.2207 C 207.93867 191.20216 234.55674 188.10133 240.34375 175.05078 C 243.6858 167.51394 252.1875 160.67459 252.1875 165.52344 C 252.1875 169.05706 258.16127 165.73409 258.88672 161.79688 C 259.06885 160.80834 259.72416 159.83064 260.3418 159.625 C 263.20718 158.67099 258.51655 172.75922 254.13867 178.25586 C 252.26574 180.60742 247.99639 182.95613 238.125 187.06445 C 234.77344 188.45931 230.76562 190.14661 229.21875 190.81445 C 227.67188 191.4823 223.1846 192.95709 219.24609 194.08984 L 212.08398 196.14844 L 209.40234 194.23633 C 203.49534 190.02445 176.65518 189.50646 169.01562 193.45703 C 167.37393 194.30599 165.33667 195 164.48828 195 C 163.63989 195 161.82565 195.60423 160.45703 196.34375 C 159.08841 197.08326 156.83721 197.92815 155.45508 198.2207 C 148.986 199.59004 139.30416 214.86337 141.51758 220.20703 C 142.72058 223.11134 148.75562 229.7667 152.27734 232.07422 C 154.49607 233.52799 180.57142 236.58931 189.375 236.42969 C 193.86489 236.34828 206.72832 232.74492 211.40625 230.25781 C 212.95312 229.43539 214.92138 228.75886 215.78125 228.75586 C 216.65426 228.75263 218.10327 227.19749 219.0625 225.23438 C 222.10718 219.0033 233.47356 218.83898 251.71875 224.76367 C 267.05367 229.74333 262.86997 234.71161 246.33398 231.1582 C 231.57345 227.98632 236.84617 231.76473 269.53125 247.7793 C 271.59375 248.78985 274.53803 250.51169 276.07422 251.60547 C 277.61039 252.69925 279.57005 254.01563 280.42773 254.53125 C 288.75108 259.53514 299.68714 270.77054 298.71094 273.31445 C 297.79354 275.70517 296.70103 275.14783 279.17188 263.34961 C 273.35435 259.43405 266.0625 254.85612 262.96875 253.17578 C 259.875 251.49544 254.52747 248.47636 251.08594 246.4668 C 247.64442 244.45723 244.46879 242.8125 244.0293 242.8125 C 243.58981 242.8125 240.30047 239.85937 236.71875 236.25 C 229.36223 228.83668 226.598 228.06275 220.03906 231.57812 C 218.09928 232.61779 214.30844 233.92793 211.61523 234.49023 C 208.76593 235.08512 205.66806 236.49914 204.20508 237.87109 C 201.31019 240.58587 196.23665 241.77598 187.32031 241.83398 C 175.88948 241.90838 185.26929 253.91119 204.94531 264.38867 C 218.42157 271.5648 219.03433 274.55939 206.11719 270.11523 C 193.64393 265.82381 185.11251 258.59109 179.0625 247.17969 C 175.30401 240.09048 174.89737 239.90764 163.59375 240.17578 C 157.07285 240.33046 155.46347 240.02327 151.26953 237.83203 C 148.61652 236.4459 146.06949 235.3125 145.60938 235.3125 C 143.15421 235.3125 135.77147 226.02946 135.27344 222.31641 C 133.04717 205.71828 144.57569 193.9065 168.34961 188.42773 C 186.90388 184.15185 187.72391 183.2546 188.00391 166.9668 C 188.12444 159.95486 188.67445 151.26562 189.22461 147.65625 C 189.77478 144.04687 190.45973 136.79075 190.74805 131.53125 C 191.19553 123.36809 193.10579 117.62095 194.48047 117.36914 z M 140.97852 149.58398 C 141.79628 149.50877 143.31861 151.41563 145.4668 155.625 C 146.12465 156.91406 147.96079 160.07812 149.54688 162.65625 C 155.50132 172.3351 157.69648 179.42852 155.4375 181.6875 C 151.60665 185.51835 147.7635 180.30584 143.13281 165 C 140.21056 155.34111 139.61558 149.70934 140.97852 149.58398 z M 91.265625 170.87891 C 92.251014 170.7917 94.185243 171.46872 96.708984 173.0625 C 98.948371 174.47671 103.29279 176.61851 106.36328 177.82227 C 109.43376 179.02603 113.44157 181.01398 115.26953 182.24023 C 117.09748 183.46648 121.125 186.05142 124.21875 187.98438 C 130.02487 191.61199 131.21173 192.75869 131.23633 194.76562 C 131.2635 196.98344 127.01243 195.85073 118.59375 191.39648 C 107.95781 185.76908 98.795648 179.79665 92.939453 174.67383 C 90.300728 172.36555 89.998696 170.99103 91.265625 170.87891 z M 264.48438 187.35742 C 265.99964 187.48221 268.45227 189.57208 271.11523 193.88086 C 274.5214 199.39216 273.79722 213.70278 269.91602 217.58398 C 268.17478 219.32522 266.0663 219.72008 263.67188 218.75391 C 261.97046 218.06737 262.21128 216.8877 264.84375 213.01367 C 267.94023 208.45703 267.93637 202.74241 264.83398 196.07812 C 262.13668 190.28401 262.53617 187.19698 264.48438 187.35742 z M 281.55273 192.24414 C 282.1438 192.17312 282.90442 193.86558 283.73828 197.41992 C 285.91475 206.6971 284.61447 220.42691 281.4043 222.06836 C 275.43924 225.11847 271.60126 223.18852 275.46094 219.08008 C 279.05946 215.24963 280.3125 210.59296 280.3125 201.04492 C 280.3125 195.34023 280.79279 192.33545 281.55273 192.24414 z M 75.771484 195.17773 C 76.470365 195.15667 77.231352 195.16031 78.046875 195.19336 C 83.341121 195.40792 84.84375 195.77963 84.84375 196.875 C 84.84375 198.30226 75.148593 199.29791 72.421875 198.15039 C 69.007328 196.71341 70.879319 195.32515 75.771484 195.17773 z M 415.3125 197.8125 C 417.8965 197.8125 419.55794 200.30467 418.125 202.03125 C 416.88087 203.53034 416.57094 203.58983 414.375 202.75391 C 411.05745 201.49103 411.75536 197.8125 415.3125 197.8125 z M 215.76758 202.02148 C 216.95653 201.87052 217.36275 203.69421 217.64648 209.03711 C 217.91714 214.13379 217.71529 215.15672 216.39062 215.42188 C 212.89539 216.12152 211.48233 204.48199 214.8125 202.42383 C 215.17846 202.19765 215.49321 202.05632 215.76758 202.02148 z M 225.70703 203.44141 C 226.58033 203.41542 226.78062 204.45581 227.3418 208.22656 C 228.10935 213.38393 225.68059 215.66109 224.0332 211.32812 C 222.68891 207.79237 222.93113 204.39148 224.57227 203.76172 C 225.05117 203.57795 225.41593 203.45007 225.70703 203.44141 z M 171.89258 203.90625 C 175.81113 203.90625 179.98 217.145 177 220.125 C 173.97092 223.15408 172.56606 221.29903 171.50781 212.87109 C 171.06769 209.36601 170.58323 205.91375 170.43164 205.20117 C 170.27524 204.466 170.90771 203.90625 171.89258 203.90625 z M 125.58008 228.75 C 127.40816 228.75 129.00029 231.76884 128.01367 233.36523 C 127.71391 233.85024 126.63736 240.22516 125.62109 247.53125 C 123.83983 260.33685 122.04881 267.88222 117.95508 279.84375 C 116.02318 285.48861 111.50171 301.08306 109.25586 309.84375 C 106.99545 318.66121 102.90688 331.40519 101.96289 332.57812 C 96.77681 339.02205 96.18313 330.87398 100.76172 316.09375 C 106.35166 298.04876 109.32854 287.4433 110.93359 279.84375 C 111.69591 276.23437 113.40638 269.48437 114.73633 264.84375 C 117.78664 254.2003 119.93716 242.88474 119.01758 242.31641 C 117.99461 241.68418 100.27167 258.73469 99.302734 261.2832 C 97.561075 265.8641 96.438768 263.55226 97.048828 256.64062 C 97.776431 248.39733 99.493662 246.49053 112.0293 240 C 118.60948 236.59301 120.52412 235.10478 121.98242 232.26562 C 123.1162 230.05828 124.45445 228.75 125.58008 228.75 z M 56.115234 228.79883 C 51.450001 228.55001 48.241325 241.79122 50.808594 254.2207 C 51.835423 259.19212 51.764132 259.94565 49.951172 263.18359 C 44.335052 273.21393 45.003419 282.32476 51.609375 285.76953 C 61.684113 291.02314 76.054598 287.44372 75.273438 279.875 C 74.842717 275.70171 75.023915 274.87893 76.5 274.3125 C 78.78569 273.4354 80.625 275.98245 80.625 280.02344 C 80.625 285.58919 84.996849 283.35096 85.847656 277.34961 C 86.580229 272.18225 84.619213 270.69824 76.181641 270.03125 C 67.0447 269.30896 56.25 263.39955 56.25 259.12109 C 56.25 257.50477 56.204335 257.50554 64.21875 259.20312 C 82.122062 262.99535 88.959385 256.98793 82.3125 243.30664 C 78.137393 234.71301 67.836499 239.66751 66 251.15234 C 65.661538 253.26896 65.102457 255 64.755859 255 C 61.752556 255 60.891552 246.98107 63.28125 241.26172 C 65.20801 236.65033 65.049733 234.83296 62.578125 233.18555 C 61.417969 232.41227 59.444342 230.87619 58.191406 229.77344 C 57.478062 229.1456 56.781696 228.83437 56.115234 228.79883 z M 210.93555 239.0625 C 213.64737 239.0625 227.07092 249.64821 231.39844 255.19922 C 233.5237 257.92536 237.15851 262.47656 239.47461 265.3125 C 246.05684 273.37207 254.76179 286.35178 257.82422 292.67383 C 259.35847 295.84108 261.20118 299.10234 261.91992 299.91992 C 262.63866 300.73749 264.5544 303.9375 266.17773 307.03125 C 267.80107 310.125 269.9911 314.01612 271.04297 315.67773 C 272.09485 317.33934 272.6868 319.13231 272.35938 319.66211 C 271.29083 321.39105 268.64796 320.6288 265.85938 317.78711 C 264.35548 316.25456 262.78248 315 262.36328 315 C 261.94406 315 260.69237 313.20704 259.58203 311.01562 C 258.47168 308.82422 256.42555 305.55469 255.03516 303.75 C 253.64476 301.94531 251.08139 297.9375 249.33984 294.84375 C 247.59828 291.75 242.33013 284.15625 237.63086 277.96875 C 232.93159 271.78125 227.14562 264.16586 224.77344 261.04492 C 222.40125 257.92399 218.27715 253.07242 215.60938 250.26367 C 207.69341 241.92942 206.49749 239.0625 210.93555 239.0625 z M 154.0957 252.1875 C 155.46912 252.1875 160.3125 257.65435 160.3125 259.20508 C 160.3125 259.61632 161.98252 262.59849 164.02344 265.83008 C 166.06438 269.06167 168.01177 272.81218 168.35156 274.16602 C 168.69645 275.54014 170.16316 277.24521 171.67188 278.02539 C 173.15834 278.79407 174.375 279.83355 174.375 280.33594 C 174.375 282.32979 169.64239 281.25311 168.8125 279.07031 C 168.35666 277.87136 166.89586 276.17773 165.56641 275.30664 C 164.23696 274.43554 162.30999 272.07517 161.2832 270.0625 C 160.25641 268.04983 158.18993 264.5755 156.69336 262.3418 C 153.30792 257.28886 152.00285 252.1875 154.0957 252.1875 z M 137.63477 262.5 C 140.69528 262.5 143.27105 278.92971 143.88086 302.34375 C 144.36749 321.0278 143.53645 329.77466 142.16016 320.46875 C 141.82971 318.23435 141.13125 313.66406 140.60742 310.3125 C 138.28919 295.47994 136.23887 262.5 137.63477 262.5 z M 180.71094 330.16992 C 183.44825 330.22775 185.7632 332.387 187.6582 336.64648 C 188.14482 337.74028 189.12421 341.15979 190.59375 346.90625 C 190.86439 348.04573 191.02783 348.67848 191.08398 348.80469 L 193.45117 347.75195 C 195.38432 346.89191 196.9872 345.92752 198.25977 344.85742 C 199.17525 344.04697 200.28402 343.35265 201.58594 342.77344 C 205.6495 340.9656 208.65314 342.24787 210.59961 346.62305 C 211.90973 349.56787 211.78721 351.78907 210.23242 353.28711 C 208.71708 354.7676 203.83728 357.34338 195.5918 361.01172 L 197.0332 369.2793 C 199.16387 376.1931 201.08745 378.14493 201.70508 379.5332 C 203.5705 380.11437 206.99206 380.58227 211.9707 380.9375 C 214.78095 381.19912 218.3144 382.06245 220.00586 383.52734 C 221.71804 384.93261 221.9669 387.15072 223.31445 390.17969 C 226.30903 396.91073 220.9704 404.55518 211.33008 413.48047 L 221.05078 429.92969 C 221.38767 430.68693 221.21493 434.80567 222.73242 437.1543 C 224.2499 439.50292 225.11248 440.90834 225.31836 441.37109 C 225.78626 442.42282 225.53541 443.66733 224.56836 445.10547 C 223.65948 446.56813 222.4945 447.61618 221.07422 448.24805 C 216.30052 450.37182 212.71597 448.7403 210.32031 443.35547 L 203.35938 424.68164 C 202.54556 425.29568 201.67429 425.88616 200.74414 426.45117 C 199.81398 427.01617 198.90249 427.62234 198.00977 428.27148 C 192.97363 432.77981 191.57572 435.59543 189.05078 436.71875 C 186.92037 437.66655 182.38901 438.04296 180.22266 437.84766 C 178.03757 437.61028 176.65442 436.8393 176.07422 435.53516 C 174.59565 432.21171 174.80087 429.27437 176.68945 426.7207 C 178.61749 424.1495 183.35043 422.41253 190.15234 418.58008 C 196.20266 415.18282 198.57043 411.36664 197.99023 410.0625 C 194.70065 399.48145 192.52189 392.99168 191.45508 390.59375 C 188.74042 390.44079 186.29743 390.41954 184.125 390.5293 C 179.13425 390.78421 176.9291 388.81563 174.94531 388.28711 C 173.00099 387.74104 169.64567 388.63138 167.44336 387.29297 C 165.22233 385.91249 163.51228 383.87601 162.31445 381.18359 C 161.11662 378.49117 162.24934 374.66027 165.71094 369.69336 C 169.19323 364.66682 173.85674 360.2233 179.70117 356.36328 C 179.40575 355.48679 179.1348 354.41461 178.5 353.3457 L 172.73047 343.63281 C 171.67248 341.85129 172.13592 336.11863 173.83789 334.10156 C 174.68658 332.71607 176.01724 331.61988 177.83203 330.8125 C 178.83806 330.36493 179.7985 330.15064 180.71094 330.16992 z M 184.05664 368.86523 C 180.28243 371.85463 178.0516 374.4346 177.36328 376.60547 C 177.8266 376.90329 179.87736 378.8856 182.7832 379.25586 C 185.67034 379.58407 186.88595 378.03888 187.16211 377.91602 L 184.05664 368.86523 z M 205.74609 391.64453 C 206.95711 395.64137 207.91594 398.5924 208.62109 400.49609 C 208.80973 399.85781 209.47556 398.80416 210.61914 397.33789 C 211.48251 396.19785 211.81135 395.39635 211.60547 394.93359 C 211.53057 394.76531 211.39822 394.57277 211.20703 394.35547 C 211.03454 394.18022 210.8217 394.02295 210.57031 393.88281 C 210.33965 393.68305 210.92785 393.47541 210.50195 393.26172 C 210.15294 393.11463 208.87749 392.94699 208.50977 392.75781 C 208.14204 392.56864 207.75484 392.38843 207.34766 392.2168 C 207.01737 392.11177 206.67909 391.98499 206.33008 391.83789 L 205.83398 391.68164 L 205.74609 391.64453 z "
     id="path5209" />
</svg>
