<?xml version="1.0" encoding="utf-8"?>
<!-- Svg Vector Icons : http://www.onlinewebfonts.com/icon -->
<!DOCTYPE svg PUBLIC "-//W3C//DTD SVG 1.1//EN" "http://www.w3.org/Graphics/SVG/1.1/DTD/svg11.dtd">
<svg version="1.1" xmlns="http://www.w3.org/2000/svg" xmlns:xlink="http://www.w3.org/1999/xlink" x="0px" y="0px" viewBox="0 0 1000 1000" enable-background="new 0 0 1000 1000" xml:space="preserve">
<metadata> Svg Vector Icons : http://www.onlinewebfonts.com/icon </metadata>
<g><path d="M805.6,354.3h-10.2v-48.9v-2C793.4,140.4,661,10,500,10c-161,0-293.4,130.4-295.4,291.4v2v48.9h-10.2c-63.2,0-114.1,50.9-114.1,114.1v154.8c0,16.3,14.3,30.6,30.6,30.6c16.3,0,30.6-14.3,30.6-30.6V466.4c0-28.5,24.4-53,53-53h611.2c28.5,0,53,24.4,53,53v311.7c0,105.9-38.7,148.7-134.5,148.7H275.9c-95.8,0-134.5-40.7-134.5-148.7c0-16.3-14.3-30.6-30.6-30.6c-16.3,0-30.6,16.3-30.6,32.6c0,138.5,65.2,209.9,195.6,209.9h448.2c128.4,0,195.6-71.3,195.6-209.9V468.4C919.7,405.3,868.8,354.3,805.6,354.3z M265.7,307.5c0-130.4,105.9-236.3,234.3-236.3c128.4,0,234.3,105.9,234.3,234.3v46.9H265.7V307.5z"/><path d="M500,814.8c22.4,0,44.8-18.3,44.8-44.8V664c20.4-14.3,34.6-38.7,34.6-65.2c0-44.8-34.6-77.4-75.4-77.4s-75.4,36.7-75.4,77.4c-2,26.5,10.2,53,28.5,65.2V770C455.2,796.4,475.6,814.8,500,814.8z"/></g>
</svg>