<?xml version="1.0" encoding="utf-8"?>
<!-- Svg Vector Icons : http://www.onlinewebfonts.com/icon -->
<!DOCTYPE svg PUBLIC "-//W3C//DTD SVG 1.1//EN" "http://www.w3.org/Graphics/SVG/1.1/DTD/svg11.dtd">
<svg version="1.1" xmlns="http://www.w3.org/2000/svg" xmlns:xlink="http://www.w3.org/1999/xlink" x="0px" y="0px" viewBox="0 0 1000 1000" enable-background="new 0 0 1000 1000" xml:space="preserve">
<metadata> Svg Vector Icons : http://www.onlinewebfonts.com/icon </metadata>
<g><g><path d="M890.6,205.7c15.5,29.2,23.2,65.5,23.2,108.9c0,98.8-41.6,178.4-124.7,238.8c-83.2,60.5-199.3,90.7-348.6,90.7h-34.9c-26.3,0-52.5,20.6-58.4,45.8l-42,178.8c-5.8,25.3-32.1,45.9-58.4,45.9h-76.4l-6.8,29.2c-5.9,25.3,10.7,46,37,46H323c26.3,0,52.6-20.6,58.4-45.9l42-178.8c5.9-25.2,32.2-45.8,58.4-45.8h34.9c149.3,0,265.4-30.2,348.6-90.7C948.4,568.2,990,488.6,990,389.8c0-43.4-7.7-79.7-23.2-108.9c-15.5-29-37.9-52.7-67.3-70.8C896.4,208.2,893.8,207.5,890.6,205.7z M229,793.7l42-178.9c5.9-25.2,32.1-45.8,58.4-45.8h34.9c149.3,0,265.4-30.2,348.6-90.7c83.1-60.5,124.7-140.1,124.7-238.8c0-43.4-7.7-79.7-23.2-108.9c-15.4-29-37.9-52.7-67.2-70.8c-30-18.4-65.3-31.1-106.1-38.6C600,13.7,552.1,10,497.1,10h-255c-26.3,0-52.6,20.5-58.5,45.8L11.2,793.6c-5.9,25.3,10.7,45.9,36.9,45.9h122.5C196.8,839.6,223.2,818.9,229,793.7z M329,365.5l36.8-156.6c6-25.2,32.2-45.8,58.4-45.8h40.1c46.7,0,82.1,7.8,105.9,23.5c23.7,15.5,35.6,39.4,35.6,71.8c0,49-18.5,86.8-55.3,113.3c-36.8,26.5-88,39.9-154.1,39.9h-30.3C339.8,411.5,323.2,390.8,329,365.5z"/></g><g></g><g></g><g></g><g></g><g></g><g></g><g></g><g></g><g></g><g></g><g></g><g></g><g></g><g></g><g></g></g>
</svg>