<?xml version="1.0" encoding="utf-8"?>
<!-- Svg Vector Icons : http://www.onlinewebfonts.com/icon -->
<!DOCTYPE svg PUBLIC "-//W3C//DTD SVG 1.1//EN" "http://www.w3.org/Graphics/SVG/1.1/DTD/svg11.dtd">
<svg version="1.1" xmlns="http://www.w3.org/2000/svg" xmlns:xlink="http://www.w3.org/1999/xlink" x="0px" y="0px" viewBox="0 0 1000 1000" enable-background="new 0 0 1000 1000" xml:space="preserve">
<metadata> Svg Vector Icons : http://www.onlinewebfonts.com/icon </metadata>
<g><path d="M499.1,204.1c-62.4,0-112.7,17-151.2,50.8c-38.4,33.9-59,75.1-62.1,123.6v37.3h104.9c-0.4-15.9,1.6-28.9,3.8-38.2c0.5-1.7,0.9-3.7,1.6-5.3c0.5-1.9,1.1-4,1.6-5.4c7.8-21.7,18.9-38.7,33.3-50.9c19.6-16.5,43.9-24.8,73-24.8c30.2,0,54.2,7.9,71.9,23.7s26.7,34.9,26.7,57c0,16-5,30.6-15.1,43.9c-6.5,8.4-26.6,26.2-59.9,53.2c-33.3,27-55.6,51.5-66.7,73.2c-11.1,21.7-16.7,49.3-16.7,82.9c0,3.3,0.2,12.3,0.4,27.2h103.9c-0.6-31.4,2.1-53.2,7.9-65.4c5.8-12.2,20.7-28.4,44.9-48.4c46.5-38.7,76.9-69.4,91.2-91.9c14.2-22.5,21.3-46.3,21.3-71.5c0-45.6-19.4-85.5-58.2-119.8C617,221.2,564.8,204.1,499.1,204.1L499.1,204.1z"/><path d="M444.9,692.2h103.9V796H444.9V692.2L444.9,692.2z"/><path d="M811.8,10.1H188.2C89.8,10.1,10,89.9,10,188.3v623.4c0,98.4,79.8,178.2,178.2,178.2h623.6c98.4,0,178.2-79.8,178.2-178.2V188.3C990,89.9,910.2,10.1,811.8,10.1z M900.9,755.1c0,80.6-65.3,145.8-145.8,145.8H244.8c-80.5,0-145.7-65.3-145.7-145.8V245c0-80.6,65.3-145.9,145.7-145.9h510.3c80.6,0,145.8,65.3,145.8,145.9L900.9,755.1L900.9,755.1z"/></g>
</svg>