<?xml version="1.0" encoding="utf-8"?>
<!-- Svg Vector Icons : http://www.onlinewebfonts.com/icon -->
<!DOCTYPE svg PUBLIC "-//W3C//DTD SVG 1.1//EN" "http://www.w3.org/Graphics/SVG/1.1/DTD/svg11.dtd">
<svg version="1.1" xmlns="http://www.w3.org/2000/svg" xmlns:xlink="http://www.w3.org/1999/xlink" x="0px" y="0px" viewBox="0 0 1000 1000" enable-background="new 0 0 1000 1000" xml:space="preserve">
<metadata> Svg Vector Icons : http://www.onlinewebfonts.com/icon </metadata>
<g><path d="M26.3,854c-57.1,54.8,51.6,169.1,113,116l428.3-435.5c20-18.1,21.7-55.2,0-76.7L139.1,22.4c-61.2-53.1-170.1,61.2-113,116l341.7,357.7l0.4,0.2l-0.4,0.2L26.3,854z"/><path d="M433,861.7c-57.1,54.8,51.6,169.1,113,116l428.3-435.5c20-18.1,21.7-55.2,0-76.7L546,30c-61.2-53.1-170.1,61.2-113,116l341.7,357.7l0.4,0.2l-0.4,0.2L433,861.7z"/></g>
</svg>