<?xml version="1.0" encoding="utf-8"?>

<!DOCTYPE svg PUBLIC "-//W3C//DTD SVG 1.1//EN" "http://www.w3.org/Graphics/SVG/1.1/DTD/svg11.dtd">
<!-- Uploaded to: SVG Repo, www.svgrepo.com, Generator: SVG Repo Mixer Tools -->
<svg height="800px" width="800px" version="1.1" id="_x32_" xmlns="http://www.w3.org/2000/svg" xmlns:xlink="http://www.w3.org/1999/xlink" 
	 viewBox="0 0 512 512"  xml:space="preserve">
<style type="text/css">
	.st0{fill:#000000;}
</style>
<g>
	<path class="st0" d="M209.945,226.061c-6.292,0-11.396,5.096-11.396,11.395c0,6.292,5.104,11.396,11.396,11.396
		c6.3,0,11.404-5.104,11.404-11.396C221.349,231.157,216.245,226.061,209.945,226.061z"/>
	<path class="st0" d="M300.305,226.061c-6.3,0-11.403,5.096-11.403,11.395c0,6.292,5.104,11.396,11.403,11.396
		c6.3,0,11.396-5.104,11.396-11.396C311.7,231.157,306.604,226.061,300.305,226.061z"/>
	<polygon class="st0" points="233.221,321.377 237.957,327.723 255.199,314.756 272.449,327.723 277.185,321.377 255.199,304.846 	
		"/>
	<path class="st0" d="M412.464,336.657c0.078-0.118,0.172-0.235,0.25-0.344c2.493-3.595,4.549-7.339,6.011-11.255
		c1.478-3.915,2.36-8.004,2.478-12.185c0.054-1.814,0.07-3.595,0.07-5.338c0-16.664-2.267-30.725-5.761-42.855
		c-1.399-4.892-2.994-9.481-4.721-13.811c8.582-1.516,16.281-5.674,22.182-11.576c7.534-7.526,12.224-18.008,12.224-29.521
		c0-11.505-4.689-21.986-12.224-29.528c-4.518-4.518-10.067-8.004-16.289-10.067c-3.838-10.208-10.247-25.683-18.485-43.519
		C384.873,97.864,345.997,24.988,300.891,4.26C295.443,1.603,289.746,0,283.93,0h-53.648c-5.409-0.023-10.575,0.907-15.398,2.556
		c-8.425,2.892-15.397,8.379-22.079,14.436c-6.003,5.44-37.509,45.754-43.45,59.456c-6.331,14.647-10.746,25.097-12.778,33.624
		c-1.712,7.081-2.173,12.662-2.267,17.14c-4.44,0.922-8.433,3.15-11.505,6.237c-4.166,4.151-6.754,9.95-6.754,16.304v22.057
		c0,6.339,2.588,12.138,6.754,16.281c1.258,1.266,2.649,2.383,4.166,3.298c-1.133,5.979-3.377,11.74-6.409,17.898
		c-5.401,10.982-13.271,23.002-19.868,38.548c-6.589,15.569-11.732,34.702-11.716,59.698c0,1.743,0.023,3.524,0.078,5.338
		c0.117,4.181,1,8.27,2.477,12.185c1.658,4.385,4.033,8.559,6.949,12.553c-18.641,17.132-47.278,76.972-50.788,126.392
		c0,0,0,11.52,33.186,21.119C114.059,494.719,203.207,512,256.004,512c56.634,0,141.938-17.281,175.124-26.879
		c33.178-9.598,33.178-21.119,33.178-21.119C460.735,413.644,431.058,352.43,412.464,336.657z M375.119,209.772
		c0-7.644,3.016-14.553,7.933-19.665c0.133-0.117,0.25-0.25,0.367-0.359c5.142-5.127,12.185-8.301,20.016-8.301
		c7.84,0,14.882,3.174,20.025,8.301c5.127,5.143,8.301,12.185,8.301,20.024c0,7.847-3.174,14.874-8.301,20.025
		c-4.799,4.791-11.224,7.847-18.43,8.23c-0.516,0.039-1.056,0.062-1.595,0.062c-6.065,0-11.653-1.883-16.242-5.127
		c-1.36-0.938-2.61-1.993-3.774-3.165c-5.128-5.151-8.3-12.162-8.3-20.009C375.119,209.788,375.103,209.788,375.119,209.772z
		 M129.487,149.754c0-2.696,1.056-5.033,2.822-6.8c1.75-1.743,4.111-2.821,6.776-2.821h182.542l36.039,41.284H139.085
		c-2.665,0-5.026-1.063-6.776-2.806c-1.766-1.766-2.822-4.126-2.822-6.8V149.754z M335.875,218.167
		c4.572,9.801,7.003,20.767,6.996,30.576c0,5.378-0.727,10.403-2.118,14.678c-1.383,4.291-3.416,7.808-5.972,10.434
		c-1.054,1.078-1.907,1.626-2.626,1.946c-0.72,0.313-1.36,0.438-2.228,0.438c-0.735,0.008-1.634-0.109-2.712-0.39
		c-1.876-0.492-4.268-1.501-6.98-2.861c-4.072-2.017-8.855-4.736-14.357-7.042c-5.494-2.298-11.818-4.174-18.923-4.174
		c-5.573-0.008-11.56,1.188-17.672,4.002c-4.658,2.134-9.386,5.182-14.232,9.278c-4.784-3.916-9.473-6.831-14.077-8.871
		c-6.073-2.712-12.005-3.854-17.539-3.846c-5.362,0-10.31,1.056-14.764,2.525c-6.691,2.228-12.389,5.377-17.203,7.738
		c-2.407,1.188-4.58,2.172-6.44,2.813c-1.853,0.649-3.36,0.922-4.487,0.922c-0.914-0.007-1.594-0.14-2.352-0.468
		c-0.758-0.336-1.634-0.899-2.72-2.009c-2.548-2.626-4.58-6.143-5.972-10.434c-1.391-4.276-2.118-9.301-2.118-14.678
		c-0.008-9.809,2.43-20.775,6.995-30.584c4.392-9.473,10.762-17.782,18.438-23.307h124.625
		C325.121,200.378,331.483,208.686,335.875,218.167z M256.004,478.97c-10.13,0-18.336-8.207-18.336-18.336
		c0-10.114,8.206-18.328,18.336-18.328c10.122,0,18.329,8.214,18.329,18.328C274.333,470.763,266.126,478.97,256.004,478.97z
		 M407.759,312.482c-0.078,2.556-0.594,5.15-1.61,7.855c-1.883,5.025-5.534,10.426-10.685,15.835
		c-8.98,9.504-22.478,18.915-37.563,27.434c-22.674,12.811-48.92,23.676-69.445,31.296c-10.27,3.806-19.102,6.8-25.362,8.855
		c-3.126,1.016-5.604,1.806-7.293,2.322c-0.258,0.078-0.461,0.156-0.671,0.212c-8.434-2.596-43.566-13.788-78.105-30.022
		c-19.235-9.028-38.259-19.665-52.18-30.92c-6.971-5.62-12.638-11.38-16.452-16.968c-1.899-2.783-3.361-5.527-4.346-8.184
		c-0.977-2.642-1.478-5.198-1.555-7.714c-0.055-1.673-0.07-3.338-0.07-4.948c0-15.461,2.071-28.169,5.221-39.15
		c4.721-16.453,11.904-29.091,18.602-41.167c3.322-6.026,6.55-11.919,9.176-18.086c1.924-4.549,3.557-9.27,4.573-14.28h33.35
		c-4.471,5.33-8.207,11.325-11.153,17.641c-5.378,11.59-8.238,24.268-8.246,36.25c0,6.573,0.868,12.943,2.775,18.828
		c1.899,5.87,4.861,11.271,9.113,15.648c2.079,2.15,4.424,3.838,6.957,4.948c2.532,1.125,5.212,1.61,7.753,1.61
		c4.252-0.023,8.043-1.242,11.607-2.704c5.338-2.235,10.38-5.174,15.562-7.44c5.182-2.275,10.333-3.862,15.726-3.854
		c3.728,0,7.636,0.719,12.091,2.689c4.448,1.977,9.442,5.252,15,10.473l4.674,4.393l4.603-4.471
		c5.597-5.432,10.622-8.832,15.077-10.872c4.471-2.04,8.371-2.767,12.076-2.775c3.588,0,7.05,0.712,10.512,1.899
		c5.198,1.766,10.318,4.62,15.499,7.261c2.595,1.321,5.222,2.588,7.996,3.58c2.774,0.992,5.744,1.727,8.965,1.727
		c2.501,0.008,5.15-0.477,7.644-1.586c2.501-1.094,4.807-2.767,6.847-4.877c4.252-4.377,7.214-9.778,9.122-15.648
		c1.906-5.885,2.767-12.255,2.767-18.828c-0.008-11.982-2.861-24.66-8.238-36.25c-2.947-6.316-6.683-12.31-11.154-17.641h25.824
		c0.57,0,1.148-0.023,1.727-0.078c-1.806,4.651-2.783,9.716-2.783,14.999c0,11.513,4.682,21.994,12.233,29.521
		c5.924,5.932,13.67,10.106,22.322,11.599c0.313,0.728,0.633,1.462,0.946,2.189c6.003,14.264,10.63,31.256,10.653,54.454
		C407.836,309.145,407.813,310.81,407.759,312.482z"/>
</g>
</svg>