<svg class="svg-icon" style="width: 1em; height: 1em;vertical-align: middle;fill: currentColor;overflow: hidden;" viewBox="0 0 1024 1024" version="1.1" xmlns="http://www.w3.org/2000/svg"><path d="M878.4 380v164c0 16 12.8 28.8 28.8 28.8S936 560 936 544V343.2c0-32-25.6-57.6-57.6-57.6H676.8c-15.2-0.8-28 10.4-28.8 25.6v3.2c-0.8 15.2 10.4 28 25.6 28.8h161.6L590.4 588l-184-184c-5.6-5.6-12.8-8-20-8.8-8 0-15.2 3.2-20 8.8L80.8 688.8c-9.6 12-8 30.4 4.8 40 10.4 8 24.8 8 35.2 0L385.6 464l184 184c5.6 5.6 12.8 8.8 20.8 8.8s15.2-3.2 20-8.8l268-268z"  /></svg>