<?xml version="1.0" encoding="utf-8"?>
<!-- Svg Vector Icons : http://www.onlinewebfonts.com/icon -->
<!DOCTYPE svg PUBLIC "-//W3C//DTD SVG 1.1//EN" "http://www.w3.org/Graphics/SVG/1.1/DTD/svg11.dtd">
<svg version="1.1" xmlns="http://www.w3.org/2000/svg" xmlns:xlink="http://www.w3.org/1999/xlink" x="0px" y="0px" viewBox="0 0 1000 1000" enable-background="new 0 0 1000 1000" xml:space="preserve">
<metadata> Svg Vector Icons : http://www.onlinewebfonts.com/icon </metadata>
<g><path d="M806.9,947.4H193.1c-76.2,0-134.4-28.2-163.9-79.3S4.4,752.5,42.4,686.5l306.9-531.6C387.5,88.9,441,52.6,500,52.6c59,0,112.5,36.3,150.7,102.3l306.9,531.6c38.1,66,42.8,130.5,13.3,181.6C941.3,919.2,883.1,947.4,806.9,947.4z M500,142.1c-25.3,0-52,21-73.1,57.6L120,731.2c-21.1,36.6-26,70.2-13.3,92.1c12.7,22,44.2,34.5,86.4,34.5h613.8c42.2,0,73.7-12.6,86.4-34.5c12.7-21.9,7.8-55.5-13.3-92.1L573.1,199.7C552,163.1,525.3,142.1,500,142.1z"/><path d="M491.9,812.9c-29.8,0-51.4-22.6-51.4-53.8c0-31,22.4-54.3,52-54.3c29.8,0,51.4,22.9,51.4,54.3C543.9,790.3,522,812.9,491.9,812.9z M457.6,673.8l-11.1-330.9h91.8l-11.1,330.9H457.6z"/></g>
</svg>